<svg width="25" height="24" viewBox="0 0 25 24" fill="none" xmlns="http://www.w3.org/2000/svg">
<path d="M21.3333 10H3.33331M16.3333 2V6M8.33331 2V6M8.13331 22H16.5333C18.2135 22 19.0535 22 19.6953 21.673C20.2598 21.3854 20.7187 20.9265 21.0063 20.362C21.3333 19.7202 21.3333 18.8802 21.3333 17.2V8.8C21.3333 7.11984 21.3333 6.27976 21.0063 5.63803C20.7187 5.07354 20.2598 4.6146 19.6953 4.32698C19.0535 4 18.2135 4 16.5333 4H8.13331C6.45316 4 5.61308 4 4.97134 4.32698C4.40686 4.6146 3.94791 5.07354 3.66029 5.63803C3.33331 6.27976 3.33331 7.11984 3.33331 8.8V17.2C3.33331 18.8802 3.33331 19.7202 3.66029 20.362C3.94791 20.9265 4.40686 21.3854 4.97134 21.673C5.61308 22 6.45316 22 8.13331 22Z" stroke="#667085" stroke-width="2" stroke-linecap="round" stroke-linejoin="round"/>
</svg>
