<svg width="40" height="40" viewBox="0 0 40 40" fill="none" xmlns="http://www.w3.org/2000/svg">
<path d="M20 40C31.0457 40 40 31.0457 40 20C40 8.9543 31.0457 0 20 0C8.9543 0 0 8.9543 0 20C0 31.0457 8.9543 40 20 40Z" fill="white"/>
<path d="M32.8325 4.6675C35.7425 8.14125 37.5 12.6137 37.5 17.5C37.5 28.545 28.545 37.5 17.5 37.5C12.6138 37.5 8.14126 35.7425 4.66751 32.8325C8.33626 37.2125 13.84 40 20 40C31.045 40 40 31.045 40 20C40 13.84 37.2125 8.33625 32.8325 4.6675Z" fill="white"/>
<path d="M31.875 25C32.9105 25 33.75 24.1605 33.75 23.125C33.75 22.0895 32.9105 21.25 31.875 21.25C30.8395 21.25 30 22.0895 30 23.125C30 24.1605 30.8395 25 31.875 25Z" fill="white"/>
<path d="M8.125 25C9.16053 25 10 24.1605 10 23.125C10 22.0895 9.16053 21.25 8.125 21.25C7.08947 21.25 6.25 22.0895 6.25 23.125C6.25 24.1605 7.08947 25 8.125 25Z" fill="white"/>
<path d="M26.8188 25H13.1813C12.805 25 12.5 25.28 12.5 25.625C12.5 29.4163 15.8637 32.5 20 32.5C24.1362 32.5 27.5 29.4163 27.5 25.625C27.5 25.28 27.195 25 26.8188 25Z" fill="#707070"/>
<path d="M27.45 26.25C27.4725 26.0425 27.5 25.8375 27.5 25.625C27.5 25.28 27.195 25 26.8188 25H13.1813C12.805 25 12.5 25.28 12.5 25.625C12.5 25.8375 12.5275 26.0425 12.55 26.25H27.45Z" fill="#AB7934"/>
<path d="M38.75 12.5H36.02C35.5013 11.0475 34.1275 10 32.5 10H25C23.695 10 22.5462 10.6712 21.875 11.685C21.2913 11.4012 20.6575 11.25 20 11.25C19.3425 11.25 18.7087 11.4012 18.125 11.685C17.4538 10.6712 16.305 10 15 10H7.5C5.8725 10 4.49875 11.0475 3.98 12.5H1.25C0.56 12.5 0 13.06 0 13.75C0 14.44 0.56 15 1.25 15H3.75V17.5C3.75 19.5675 5.4325 21.25 7.5 21.25H15C17.0675 21.25 18.75 19.5675 18.75 17.5V14.2638C19.5 13.6225 20.5 13.6225 21.25 14.2638V17.5C21.25 19.5675 22.9325 21.25 25 21.25H32.5C34.5675 21.25 36.25 19.5675 36.25 17.5V15H38.75C39.4412 15 40 14.44 40 13.75C40 13.06 39.4412 12.5 38.75 12.5Z" fill="#35495C"/>
<path d="M6.34 21.0475L11.25 10H10L5.3175 20.5363C5.625 20.7588 5.97125 20.9262 6.34 21.0475ZM23.84 21.0475L28.75 10H27.5L22.8175 20.5363C23.125 20.7588 23.4713 20.9262 23.84 21.0475ZM27.5 21.25H25L30 10H32.5L27.5 21.25ZM10 21.25H7.5L12.5 10H15L10 21.25Z" fill="#576D7E"/>
</svg>
