<svg width="103" height="92" viewBox="0 0 103 92" fill="none" xmlns="http://www.w3.org/2000/svg">
<path fill-rule="evenodd" clip-rule="evenodd" d="M56.2745 4.63053C56.4815 4.69832 56.6886 4.7661 56.9536 4.85263C56.554 4.89266 56.554 4.89266 56.2745 4.63053ZM69.0652 6.35144C69.4391 6.1773 69.8229 6.07346 70.2388 6.20272C69.8476 6.25229 69.4564 6.30187 69.0652 6.35144ZM57.7429 4.54256C58.1519 3.78973 58.5727 3.05078 59.1488 2.41982C59.7342 1.77912 60.4239 1.29743 61.2938 1.12761C61.9217 1.00502 62.6599 1.32465 62.9548 1.84745C62.8288 1.76452 62.7233 1.69169 62.6146 1.6239C61.9044 1.18205 60.8611 1.09065 60.1094 1.95273C59.9298 2.15878 59.7591 2.37295 59.5938 2.59036C59.3585 2.89971 59.1438 3.22511 58.8992 3.52671C58.5741 3.92728 58.2312 4.31397 57.7429 4.54256ZM63.4969 15.3821C63.6339 15.3428 63.7123 15.3113 63.7935 15.2985C64.5501 15.1793 65.1879 14.8154 65.701 14.2709C66.1132 13.8332 66.4633 13.3349 66.8239 12.8511C67.0042 12.6093 67.1343 12.331 67.3076 12.0835C67.8246 11.3449 68.8224 10.951 69.7234 11.1046C69.4507 11.3608 69.1455 11.6054 68.8934 11.8962C68.6304 12.1992 68.4177 12.5461 68.1848 12.8751C68.0099 13.1222 67.8442 13.3759 67.6632 13.6182C67.2365 14.1898 66.7186 14.6652 66.1196 15.0533C65.6766 15.3403 65.1973 15.53 64.671 15.579C64.2881 15.6149 63.9054 15.6125 63.4969 15.3821ZM54.4907 13.022C55.252 13.0889 55.8794 12.8217 56.4552 12.4121C56.7279 12.2183 56.7919 12.064 56.671 11.9769C56.4671 11.8302 56.375 12.0568 56.2327 12.1262C55.8594 12.3085 55.492 12.5129 55.1006 12.6449C54.6849 12.7851 54.4341 12.6366 54.2291 12.2389C53.7307 11.2719 53.5821 10.2156 53.4424 9.15743C53.4163 8.95786 53.411 8.75541 53.3903 8.55477C53.3076 7.75326 53.7988 7.04514 54.5771 6.90038C55.1974 6.785 55.8134 6.84828 56.4011 7.08931C57.0668 7.36225 57.3953 7.89171 57.4946 8.58145C57.5439 8.92343 57.5765 9.26812 57.6244 9.61028C57.6435 9.74548 57.621 9.94343 57.8114 9.94577C57.9028 9.94685 58.0059 9.81146 58.0858 9.72187C58.1763 9.62037 58.2469 9.50085 58.3248 9.39106C58.6599 9.60721 58.7411 9.84788 58.5615 10.1259C58.4728 10.2627 58.3284 10.4093 58.1804 10.4522C57.8498 10.5481 57.797 10.763 57.8332 11.0463C57.9477 11.9456 58.0558 12.8459 58.1851 13.7431C58.261 14.2697 58.3711 14.7914 58.469 15.3149C58.4874 15.4132 58.5062 15.5165 58.5527 15.6023C58.5799 15.6526 58.6673 15.7052 58.7191 15.6973C58.7715 15.6893 58.8494 15.6107 58.8523 15.5595C58.8595 15.4335 58.8352 15.3045 58.8139 15.1783C58.7569 14.8375 58.6985 14.497 58.6336 14.1581C58.5932 13.9475 58.6745 13.8062 58.8375 13.6762C59.4178 13.2125 60.0028 13.2239 60.5435 13.7339C60.7318 13.9115 60.9047 14.1062 61.0782 14.2987C61.5752 14.8498 62.1497 15.2583 62.9153 15.3351C63.0123 15.3448 63.1115 15.3832 63.1993 15.4283C64.0969 15.8885 64.9849 15.8024 65.8531 15.3614C66.6784 14.9423 67.3382 14.3239 67.8734 13.5733C68.1161 13.2334 68.3189 12.8632 68.5794 12.5383C68.8929 12.1475 69.2221 11.7602 69.5962 11.4298C69.8238 11.2284 70.135 11.0716 70.4326 11.008C71.4483 10.7911 71.9828 10.1356 72.2309 9.18212C72.3861 8.58523 72.4079 7.9869 72.2132 7.3947C72.0423 6.87514 71.6976 6.53695 71.1963 6.28871C70.3796 5.88417 69.5868 5.9415 68.7719 6.24057C68.1595 6.46538 67.5365 6.61897 66.8733 6.58328C66.3166 6.55335 65.8634 6.32314 65.5356 5.89372C65.2755 5.55282 65.0572 5.17515 64.8585 4.79368C64.6128 4.32154 64.4349 3.81299 64.176 3.34878C63.8758 2.80994 63.5634 2.26749 63.1784 1.78904C62.503 0.950036 61.6138 0.767057 60.6163 1.1871C59.8247 1.52061 59.1945 2.0636 58.6958 2.75153C58.3495 3.22908 58.0398 3.73331 57.7211 4.2305C57.3872 4.7515 57.2511 4.79909 56.6513 4.6089C56.131 4.44395 55.6007 4.30928 55.0853 4.13027C53.8347 3.69563 52.3772 4.96368 52.4772 6.24238C52.5169 6.75147 52.638 7.23335 52.8545 7.69666C52.9312 7.86035 52.9903 8.04675 52.9982 8.2254C53.0345 9.06296 53.1498 9.88754 53.3187 10.708C53.4534 11.3627 53.6514 11.9941 53.9924 12.5672C54.1195 12.781 54.1172 12.9565 54.0535 13.1747C53.8388 13.9068 53.6353 14.6423 53.4327 15.3778C53.3934 15.521 53.2812 15.7259 53.503 15.7802C53.7121 15.8314 53.7262 15.5967 53.7678 15.4568C53.976 14.7526 54.1733 14.0454 54.3766 13.3398C54.404 13.2439 54.4438 13.1516 54.4907 13.022Z" fill="black"/>
<path fill-rule="evenodd" clip-rule="evenodd" d="M54.7541 8.98309L54.4787 10.0729L54.8805 10.1131L54.7541 8.98309Z" fill="black"/>
<path fill-rule="evenodd" clip-rule="evenodd" d="M54.7534 8.99355L54.8781 10.1107L54.481 10.0711L54.7534 8.99355ZM54.8805 10.1149C54.8808 10.1149 54.8814 10.1147 54.8817 10.1143C54.8821 10.1138 54.8823 10.1132 54.8823 10.1127L54.7561 8.98273C54.7559 8.98183 54.7552 8.98111 54.7543 8.98111C54.7534 8.98111 54.7525 8.98165 54.7523 8.98237L54.4768 10.0721C54.4766 10.0727 54.4768 10.0734 54.477 10.0738C54.4774 10.0743 54.4779 10.0745 54.4784 10.0747L54.8801 10.1149H54.8805Z" fill="black"/>
<path fill-rule="evenodd" clip-rule="evenodd" d="M55.0716 8.18319C55.0716 8.18319 55.055 8.51688 55.1289 8.58683C55.439 8.55258 56.137 8.66777 56.4871 8.82227C56.3494 8.50264 55.0716 8.18319 55.0716 8.18319Z" fill="black"/>
<path fill-rule="evenodd" clip-rule="evenodd" d="M55.0735 8.18526C55.1029 8.19283 55.4092 8.27125 55.7272 8.38428C56.1622 8.53932 56.4232 8.68913 56.4834 8.81821C56.142 8.6693 55.449 8.5496 55.1298 8.58475C55.0611 8.51787 55.0723 8.215 55.0735 8.18526ZM56.4872 8.82397C56.4878 8.82397 56.4881 8.82361 56.4885 8.82325C56.4892 8.82271 56.4892 8.82199 56.489 8.82109C56.4317 8.68823 56.1757 8.54004 55.7285 8.38086C55.3955 8.26242 55.0753 8.18183 55.0723 8.18111C55.0715 8.18093 55.071 8.18111 55.0706 8.18147C55.0701 8.18165 55.0697 8.18219 55.0697 8.18273C55.0692 8.19644 55.0539 8.51823 55.1278 8.58799C55.1281 8.58835 55.1289 8.58871 55.1294 8.58853C55.4492 8.55302 56.1467 8.67398 56.4863 8.82379C56.4867 8.82379 56.4869 8.82397 56.4872 8.82397Z" fill="black"/>
<path fill-rule="evenodd" clip-rule="evenodd" d="M55.6058 9.6762C55.7057 9.68232 55.8052 9.66376 55.8981 9.63311C55.8638 9.64321 55.8272 9.64879 55.7892 9.64879C55.5993 9.64879 55.4449 9.51323 55.4449 9.34683C55.4449 9.27977 55.497 9.19955 55.5462 9.14402C55.3028 9.16638 55.0892 9.29311 55.0104 9.34521C55.0809 9.42886 55.3005 9.65745 55.6058 9.6762ZM56.1243 9.26391C56.1299 9.29257 56.1333 9.32394 56.1333 9.34683C56.1333 9.46762 56.052 9.572 55.935 9.62013C56.114 9.55379 56.2622 9.44707 56.3255 9.39731C56.2887 9.36594 56.22 9.3133 56.1243 9.26391ZM54.932 9.30645C54.9448 9.2969 55.2502 9.06867 55.6087 9.06398C56.1016 9.05839 56.3989 9.35945 56.4115 9.37225C56.4187 9.37964 56.4225 9.38992 56.4221 9.40037C56.4218 9.41065 56.4171 9.42057 56.4093 9.42742C56.3936 9.4413 56.0354 9.75389 55.6451 9.75389C55.6305 9.75389 55.6158 9.75335 55.6012 9.75245C55.1917 9.72703 54.9347 9.37423 54.9239 9.35927C54.9118 9.34233 54.9154 9.31907 54.932 9.30645Z" fill="black"/>
<path fill-rule="evenodd" clip-rule="evenodd" d="M53.9255 9.5995C54.0132 9.60563 54.101 9.58418 54.1814 9.55065C54.1675 9.55335 54.1534 9.55516 54.1394 9.55516C53.9863 9.55516 53.8621 9.43077 53.8621 9.27789C53.8621 9.21101 53.8855 9.14827 53.9277 9.0987C53.9108 9.09762 53.8935 9.09708 53.8762 9.09708H53.876C53.6831 9.09708 53.5064 9.23318 53.4446 9.28673C53.4996 9.36298 53.6779 9.58166 53.9255 9.5995ZM54.503 9.33973C54.483 9.3226 54.4529 9.29862 54.4141 9.2723C54.4065 9.33648 54.3789 9.40102 54.3353 9.45348C54.3236 9.4679 54.311 9.48034 54.2978 9.4917C54.3907 9.43689 54.4646 9.37452 54.503 9.33973ZM53.3672 9.25356C53.377 9.244 53.6054 9.02064 53.876 9.02064H53.8762C54.2949 9.02064 54.5747 9.30043 54.5864 9.31232C54.601 9.32711 54.601 9.3509 54.5866 9.36587C54.5832 9.36929 54.5039 9.45024 54.3829 9.52902C54.2324 9.62727 54.0892 9.67702 53.9571 9.67702C53.9447 9.67702 53.9324 9.67666 53.9201 9.67576C53.5816 9.65142 53.3705 9.31503 53.3616 9.30079C53.3523 9.28564 53.3546 9.26599 53.3672 9.25356Z" fill="black"/>
<path fill-rule="evenodd" clip-rule="evenodd" d="M54.5402 8.18261C54.5402 8.18261 54.557 8.5163 54.4829 8.58625C54.173 8.552 53.6738 8.6342 53.3237 8.78852C53.4615 8.46907 54.5402 8.18261 54.5402 8.18261Z" fill="black"/>
<path fill-rule="evenodd" clip-rule="evenodd" d="M54.328 8.57681C54.019 8.57681 53.6177 8.65793 53.3273 8.78503C53.3868 8.65595 53.6136 8.51191 53.9842 8.36769C54.2537 8.26295 54.5114 8.19246 54.5384 8.18525C54.5395 8.21518 54.5507 8.51768 54.482 8.58456C54.4344 8.57933 54.3826 8.57681 54.328 8.57681ZM53.3237 8.7908L53.3244 8.79062C53.666 8.64009 54.1638 8.55301 54.4825 8.58835C54.4831 8.58853 54.4836 8.58817 54.484 8.58799C54.5151 8.55842 54.5343 8.48144 54.5411 8.3585C54.5462 8.26728 54.542 8.18345 54.542 8.18255C54.542 8.18219 54.5416 8.18165 54.5413 8.18129C54.5407 8.18093 54.5402 8.18075 54.5395 8.18093C54.537 8.18165 54.2665 8.25376 53.9828 8.36409C53.7207 8.46612 53.3933 8.62242 53.3219 8.78809C53.3215 8.78881 53.3217 8.78972 53.3223 8.79026C53.3226 8.79062 53.3232 8.7908 53.3237 8.7908Z" fill="black"/>
<path fill-rule="evenodd" clip-rule="evenodd" d="M55.4122 10.5179C55.2216 10.6982 55.0668 10.7984 54.8086 10.8156C54.5505 10.8329 54.3696 10.7384 54.3696 10.7384C54.3696 10.7384 54.5762 11.089 54.8259 11.1541C55.3422 11.2892 55.3179 10.8841 55.4122 10.5179Z" fill="black"/>
<path fill-rule="evenodd" clip-rule="evenodd" d="M55.4086 10.5242C55.3938 10.5819 55.3821 10.6407 55.3707 10.6975C55.3332 10.8835 55.2979 11.0594 55.1741 11.1366C55.0929 11.1874 54.9792 11.1927 54.8263 11.1526C54.5974 11.0928 54.4023 10.7883 54.3745 10.7432C54.4079 10.7591 54.5786 10.833 54.8086 10.8179C55.0682 10.8004 55.2208 10.7012 55.4086 10.5242ZM55.0064 11.1829C55.074 11.1829 55.1303 11.1685 55.176 11.1398C55.3013 11.0616 55.3368 10.8851 55.3745 10.6982C55.3862 10.6394 55.3985 10.5785 55.4138 10.5188C55.4142 10.5179 55.4136 10.5172 55.4129 10.5166C55.4124 10.5163 55.4113 10.5163 55.4108 10.517C55.2211 10.6962 55.0691 10.7966 54.8083 10.8139C54.5536 10.831 54.3722 10.738 54.3704 10.7371C54.3695 10.7366 54.3686 10.7368 54.3682 10.7375C54.3675 10.738 54.3675 10.7389 54.3679 10.7396C54.3699 10.7432 54.5777 11.0915 54.8252 11.1564C54.893 11.1739 54.9532 11.1829 55.0064 11.1829Z" fill="black"/>
<path fill-rule="evenodd" clip-rule="evenodd" d="M61.3562 90.5475C61.2594 90.5635 61.1499 90.5925 61.0393 90.5979C60.6522 90.6169 60.265 90.6322 59.8777 90.6392C59.7065 90.6421 59.5312 90.6383 59.3645 90.6046C59.2944 90.5904 59.2414 90.4912 59.1112 90.3614C59.5916 90.3243 59.9722 90.29 60.3535 90.267C60.6255 90.2505 60.8985 90.246 61.171 90.2415C61.3652 90.2381 61.4276 90.336 61.3562 90.5475ZM39.2045 46.3003C39.2496 45.8437 39.938 44.6735 40.3247 44.3961C40.4309 44.9268 39.7745 46.0424 39.2045 46.3003ZM100.923 65.9282C101.163 65.0917 101.578 64.3551 102.139 63.7014C102.26 63.5608 102.385 63.5841 102.506 63.7456C101.979 64.4721 101.451 65.2 100.923 65.9282ZM36.816 44.7359C36.4504 44.5208 36.4036 44.4576 36.5716 44.1875C36.8436 43.75 37.1573 43.3384 37.4578 42.9189C37.4726 42.8984 37.5294 42.9076 37.6345 42.8946C37.4562 43.5829 37.2143 44.1909 36.816 44.7359ZM37.2245 44.9834C37.6107 44.3791 38.0107 43.8062 38.5405 43.2672C38.6792 43.5506 38.6083 43.7527 38.505 43.9395C38.3592 44.2027 38.2014 44.4601 38.0327 44.7089C37.9455 44.8372 37.8285 44.9476 37.7156 45.0559C37.5656 45.2003 37.4129 45.201 37.2245 44.9834ZM88.3506 32.3C88.3266 32.3213 88.3028 32.3424 88.2788 32.3633C87.1319 31.7684 86.0889 31.0107 85.0339 30.2636C85.15 30.2703 85.2529 30.3047 85.3515 30.3489C85.8105 30.5542 86.2592 30.7875 86.7294 30.9629C87.3326 31.188 87.7613 31.6272 88.1993 32.0611C88.2648 32.1258 88.3008 32.2198 88.3506 32.3ZM39.4713 43.7664C39.6469 43.8728 39.6802 44.0278 39.6128 44.209C39.3635 44.8785 39.0047 45.4707 38.3992 45.881C38.3239 45.9322 38.2303 45.9567 38.1362 45.9978C38.0904 45.5726 38.8969 44.2475 39.4713 43.7664ZM83.7707 29.8015C84.3431 30.393 85.1226 30.6494 85.4202 31.4206C85.4474 31.4911 85.5461 31.5318 85.6045 31.5931C85.9007 31.9028 86.0928 32.263 86.1785 32.7728C86.0615 32.6668 86.0068 32.6232 85.9589 32.5733C85.2641 31.8488 84.5745 31.1188 83.8727 30.4008C83.7195 30.2439 83.7026 30.0858 83.7707 29.8015ZM81.4996 26.2732C81.0547 27.1252 80.6339 27.9308 80.1917 28.7772C79.9792 28.6076 79.8171 28.4783 79.6511 28.3456C79.9851 27.4872 80.3981 26.7224 80.8845 25.9619C81.1019 26.072 81.2779 26.1611 81.4996 26.2732ZM100.602 67.8423L100.751 67.8566C100.739 68.0812 100.74 68.3076 100.711 68.5301C100.655 68.9577 100.589 69.3842 100.515 69.809C100.257 71.2715 100.149 72.7462 100.145 74.2298C100.141 75.4954 100.136 76.7609 100.129 78.0266C100.128 78.1342 100.108 78.2415 100.097 78.3491C100.019 78.0564 99.978 77.7719 99.9735 77.4871C99.9331 74.8979 99.9133 72.3085 100.244 69.7334C100.325 69.0983 100.48 68.4724 100.602 67.8423ZM40.2997 37.0695C41.1922 37.8663 42.1762 38.3695 43.229 38.8339C43.1237 39.0755 43.0303 39.2902 42.9261 39.5297C42.7321 39.4553 42.5776 39.4151 42.4422 39.3405C41.8883 39.0345 41.3332 38.7291 40.7918 38.4012C40.4653 38.2038 40.1234 38.0057 39.9932 37.5633C40.0678 37.4431 40.1641 37.2878 40.2997 37.0695ZM58.1402 90.2942C54.4208 90.6742 50.6958 90.4988 46.9708 90.3349C47.3248 90.2094 57.8459 90.1568 58.1402 90.2942ZM64.7587 29.3644C65.5914 30.4536 66.6227 31.3654 67.4653 32.4943C66.2359 32.5073 63.6794 31.2254 63.0008 30.2813C63.5716 29.9838 64.1403 29.6869 64.7587 29.3644ZM55.8014 81.6795C57.4163 81.5899 58.9829 81.7839 60.6041 81.7722C60.5615 82.3046 60.5224 82.7944 60.4815 83.3051C58.9169 83.3354 57.4285 83.1217 55.9043 82.9507C55.8686 82.5099 55.8367 82.1158 55.8014 81.6795ZM64.2615 28.4289C64.5216 28.9591 64.5135 29.0548 64.0224 29.2917C63.2721 29.6537 62.5137 30.0036 61.7393 30.309C59.3762 31.2407 56.9034 31.7884 54.4354 32.3494C54.3519 32.3683 54.2645 32.3753 54.1785 32.378C53.8136 32.3899 53.6947 32.2454 53.7406 31.8114C57.4455 31.3251 60.9165 30.066 64.2615 28.4289ZM83.2663 32.6546C83.2367 32.6558 83.2072 32.6571 83.1774 32.6584C83.1235 32.5643 83.055 32.4756 83.0181 32.3752C82.8143 31.8214 82.5998 31.2706 82.4248 30.7076C82.2238 30.0617 81.8816 29.538 81.2943 29.1846C81.0871 29.0601 80.8903 28.9182 80.6658 28.7689C80.9903 28.0244 81.3581 27.3366 81.783 26.6585C81.9822 26.7547 82.1394 26.8241 82.2906 26.9047C84.5459 28.1053 86.6773 29.5023 88.7503 30.9908C88.8813 31.0847 88.9814 31.2221 89.0959 31.3391C89.078 31.3698 89.0602 31.4002 89.0423 31.4307C88.8536 31.3826 88.6571 31.3541 88.4777 31.2825C87.9428 31.0692 87.4101 30.8491 86.8848 30.6137C85.8992 30.172 84.9194 29.7175 83.9371 29.2687C83.3977 29.0222 83.2811 29.1069 83.3211 29.7154C83.3222 29.7298 83.3243 29.744 83.3247 29.7585C83.3398 30.5358 83.3622 31.3132 83.3647 32.0905C83.3654 32.2784 83.3009 32.4666 83.2663 32.6546ZM60.6504 81.3293C60.2841 81.3475 59.9567 81.3857 59.6308 81.3758C58.4669 81.3406 57.3034 81.29 56.1399 81.242C56.0308 81.2373 55.923 81.2092 55.8246 81.1935C55.766 80.016 55.7091 78.8737 55.6525 77.7366C56.2027 77.6012 60.5091 77.7021 60.8932 77.8546C60.8135 78.9961 60.7337 80.1385 60.6504 81.3293ZM91.2386 63.0816C92.4699 61.6189 93.2732 59.9466 94.4807 58.5398C95.3049 59.1787 96.0312 59.8529 96.7204 60.5677C96.8257 60.6769 96.8937 60.8219 96.9737 60.9423C96.1068 62.3468 95.3658 63.795 94.4138 65.1654C93.3626 64.4755 92.3444 63.8072 91.2386 63.0816ZM42.896 40.0078C42.3622 41.4457 41.967 42.9928 40.7853 44.2046C40.6139 43.8888 40.3682 43.8342 40.0927 43.9391C39.6995 43.2885 39.5396 43.2238 39.0471 43.4971C38.8369 42.7989 38.6783 42.7381 38.0607 43.0945C37.9642 42.8416 37.866 42.5838 37.7574 42.2993C37.8634 42.1679 38.0037 42.0046 38.131 41.8319C38.2058 41.7304 38.2258 41.6134 38.0933 41.5349C37.9783 41.467 37.871 41.4901 37.7902 41.6004C37.7563 41.6467 37.7335 41.7013 37.6981 41.7462C37.4787 42.0231 37.2132 42.2451 36.8719 42.3471C36.4178 42.483 36.0897 42.7529 35.868 43.1713C35.7675 43.3608 35.634 43.5344 35.5027 43.7053C35.4131 43.8219 35.3017 43.9214 35.2 44.0287C35.1714 44.0087 35.1431 43.9885 35.1146 43.9685C35.1928 43.8055 35.2617 43.6373 35.3506 43.4803C35.6897 42.8805 35.9759 42.238 36.3951 41.6995C36.8332 41.1362 37.3798 40.6496 37.9186 40.1742C38.518 39.6457 39.0482 39.0666 39.4863 38.4C39.5467 38.3084 39.6188 38.2244 39.6752 38.1505C40.2128 38.4896 40.7138 38.8279 41.236 39.129C41.7693 39.4362 42.3234 39.7068 42.896 40.0078ZM99.5762 78.0823C99.3003 77.8417 99.1336 77.5905 99.0146 77.3199C98.8121 76.8599 98.6183 76.3931 98.4639 75.9154C97.9589 74.3548 97.464 72.7907 96.9843 71.2223C96.7489 70.4518 96.5666 69.6653 96.3393 68.8923C96.0999 68.0778 95.6936 67.3563 95.0756 66.7614C94.8291 66.524 94.5971 66.272 94.3433 66.0107C94.543 65.7066 94.7417 65.4254 94.9189 65.1312C95.6249 63.9599 96.3252 62.7853 97.0249 61.6102C97.1913 61.3313 97.3606 61.0564 97.6104 60.8096C98.8165 62.0241 100.223 62.8451 101.745 63.4095C101.261 64.2725 100.8 65.0958 100.321 65.9512C100.31 65.9502 100.255 65.9437 100.2 65.9402C99.8275 65.9172 99.7442 66.0331 99.9116 66.3579C100.01 66.5496 100.116 66.7398 100.24 66.9159C100.358 67.0854 100.364 67.2436 100.317 67.4427C100.153 68.1429 99.9839 68.8438 99.8702 69.5531C99.5706 71.4215 99.5911 73.3121 99.5421 75.1961C99.5179 76.1294 99.5619 77.0647 99.5762 78.0823ZM47.0512 89.8083C47.1426 89.5778 47.3122 89.4471 47.4771 89.3191C48.1186 88.8201 48.8153 88.4213 49.5934 88.1749C50.06 88.0272 50.527 87.8808 50.9945 87.7364C51.9743 87.4341 52.9204 87.0552 53.8095 86.5392C54.3916 86.2016 54.7824 85.7244 54.8845 85.0532C54.9512 84.615 54.9694 84.1691 55.0042 83.7264C55.0139 83.6027 55.0058 83.4776 55.0058 83.3045C57.0802 83.4509 59.0952 83.7951 61.1883 83.7264C61.1197 83.9286 61.0748 84.0619 61.029 84.1949C60.8435 84.7318 60.7344 85.2814 60.8105 85.85C60.9208 86.6771 61.0475 87.5021 61.1649 88.3283C61.2334 88.8089 61.2976 89.2902 61.3708 89.8222C60.5509 89.8691 59.782 89.9133 58.9836 89.959C58.8951 89.7353 58.8235 89.5175 58.7216 89.3151C58.6771 89.2266 58.5706 89.1691 58.4921 89.0977C58.428 89.1819 58.3371 89.2574 58.3063 89.3522C58.2641 89.4817 58.2675 89.6261 58.2464 89.8083H47.0512ZM43.5542 38.5155C42.4563 38.083 41.4583 37.5552 40.5906 36.7998C40.5387 36.7546 40.5102 36.683 40.4682 36.6257C40.1929 36.2473 40.2539 35.8193 40.34 35.4159C40.638 34.0222 40.9158 32.6214 41.2923 31.2483C41.9 29.0311 42.8179 26.9323 43.9544 24.9347C44.5616 23.8674 45.0726 22.7622 45.5235 21.6201C45.8713 20.7393 46.3124 19.8942 46.7337 19.0438C46.8325 18.8442 46.9845 18.6207 47.1718 18.5252C47.647 18.2834 48.0912 18.0016 48.5249 17.6957C48.6403 17.6142 48.7829 17.5686 48.9168 17.516C49.2114 17.3997 49.5072 17.2863 49.8047 17.1776C50.8591 16.7918 51.917 16.4156 52.9667 16.0179C53.1522 15.9478 53.2634 16.017 53.4008 16.0977C54.9762 17.0254 56.5859 17.0772 58.2291 16.2847C58.3167 16.2421 58.4181 16.2075 58.5138 16.2059C59.0007 16.1974 59.488 16.2065 59.9749 16.1976C60.1593 16.1946 60.3483 16.18 60.5264 16.1358C60.9677 16.0269 61.4076 16.0067 61.8545 16.0873C62.237 16.1565 62.6186 16.2382 63.0046 16.2804C64.0726 16.3968 65.0361 16.7851 65.9467 17.3395C66.4134 17.6236 66.9 17.876 67.3812 18.1363C68.8758 18.945 70.3936 19.7142 71.8614 20.5691C73.186 21.3405 74.5424 22.0266 75.985 22.5435C76.3372 22.6699 76.6819 22.8175 77.0293 22.9576C77.8607 23.2933 78.6455 23.7142 79.3792 24.2318C79.8027 24.5303 80.132 24.8988 80.3197 25.3861C80.4284 25.668 80.4291 25.924 80.2667 26.2076C79.9593 26.7439 79.6739 27.2963 79.4264 27.8623C79.2937 28.1656 79.0967 28.3267 78.7951 28.3776C77.9377 28.5216 77.0764 28.5901 76.2201 28.3812C75.2107 28.1347 74.2327 27.792 73.2814 27.3736C72.3786 26.9765 71.5872 26.3967 70.7734 25.8515C69.4516 24.9666 68.061 24.2251 66.5234 23.7674C65.4893 23.4596 64.4632 23.1144 63.5045 22.6041C63.2372 22.4618 62.9541 22.3367 62.9111 21.9783C62.9049 21.926 62.8672 21.8646 62.8251 21.833C62.7722 21.7935 62.6762 21.7431 62.6406 21.7649C62.5799 21.8024 62.5373 21.8882 62.515 21.9621C62.5007 22.0095 62.5276 22.076 62.5503 22.1276C62.712 22.4959 62.8903 22.8573 63.0372 23.2312C63.1405 23.4948 63.2428 23.7703 63.273 24.0481C63.3053 24.3448 63.2738 24.6534 63.2319 24.9518C63.1667 25.418 63.2622 25.8414 63.5083 26.2323C63.6305 26.4266 63.7789 26.6045 63.9148 26.7904C63.9997 26.9065 64.1288 27.0131 64.1575 27.1419C64.2125 27.3887 64.2559 27.6565 64.2123 27.8989C64.1906 28.0186 63.975 28.1219 63.8292 28.1976C63.4074 28.4163 62.9839 28.6344 62.548 28.8223C59.9347 29.9483 57.2652 30.8904 54.4342 31.3115C53.4567 31.4568 52.6265 31.2225 51.9379 30.4913C51.0295 29.5268 50.3756 28.3914 49.7284 27.2516C49.6311 27.0801 49.5921 26.8744 49.5355 26.6817C49.4225 26.2954 49.3453 25.8955 49.1984 25.5227C49.0518 25.1497 48.848 24.7975 48.645 24.4503C48.6075 24.3863 48.4371 24.343 48.3594 24.3726C48.2388 24.418 48.2302 24.5451 48.3071 24.6633C48.3774 24.7717 48.4517 24.88 48.5036 24.9976C48.6772 25.3915 48.8671 25.7809 49.0034 26.1879C49.1665 26.6758 49.2808 27.1798 49.4212 27.6952C49.1973 28.0143 49.1874 28.0138 49.1708 28.4199C49.118 29.7264 48.7474 30.9506 48.1343 32.0889C47.7124 32.8718 47.2033 33.61 46.7043 34.349C46.2221 35.0631 45.7205 35.7654 45.1954 36.4483C44.6632 37.1406 43.9677 37.7003 43.5542 38.5155ZM89.3881 64.9597C89.2487 64.8456 89.1391 64.7578 89.0319 64.6677C88.0607 63.8527 87.1022 63.0218 86.1164 62.225C84.1556 60.6394 82.1691 59.0855 80.2135 57.4935C78.5595 56.1475 76.9311 54.77 75.297 53.3996C73.0562 51.5199 70.7887 49.67 68.5919 47.7398C66.3413 45.7622 64.1789 43.6845 61.9469 41.6851C59.9158 39.8656 57.9461 37.9895 56.1799 35.9077C56.1336 35.8528 56.0882 35.7836 56.0271 35.7591C55.958 35.7317 55.8464 35.7155 55.7999 35.7528C55.7514 35.7914 55.7251 35.9129 55.7493 35.9745C55.7898 36.078 55.8727 36.1672 55.9472 36.2543C57.3725 37.9213 58.8988 39.4895 60.5327 40.9536C61.2302 41.5786 61.9179 42.2146 62.617 42.838C62.7793 42.9826 62.8564 43.1367 62.8604 43.3592C62.8698 43.863 62.9172 44.3662 62.933 44.87C62.9787 46.3245 63.0057 47.7799 63.0592 49.234C63.1521 51.7538 63.2927 54.2721 63.3515 56.7925C63.4227 59.8462 63.4207 62.9015 63.4674 65.9559C63.5031 68.2898 63.5579 70.6233 63.619 72.9566C63.6491 74.1083 63.7136 75.2592 63.7601 76.4106C63.7688 76.6261 63.7809 76.8433 63.7638 77.0578C63.74 77.3547 63.6855 77.4025 63.3913 77.4204C63.1759 77.4332 62.959 77.4319 62.743 77.4279C60.7407 77.3906 58.7386 77.3544 56.7366 77.3095C56.3512 77.301 55.9665 77.2559 55.5558 77.226C55.5108 76.9933 55.4583 76.7856 55.4311 76.5745C55.2919 75.4889 55.1549 74.4027 55.0249 73.316C54.7891 71.3435 54.5378 69.3722 54.3321 67.3962C54.1187 65.3479 53.9238 63.2967 53.7715 61.243C53.6034 58.9737 53.4165 56.7017 53.3747 54.4284C53.3112 50.9711 53.3484 47.5116 53.3754 44.0534C53.3927 41.8636 53.4569 39.6741 53.5239 37.4851C53.5613 36.2619 53.6418 35.0396 53.7154 33.8175C53.735 33.4903 53.8001 33.1657 53.8414 32.8623C56.8232 32.2564 59.7458 31.5636 62.5364 30.443C63.3657 31.2876 64.3181 31.8767 65.3495 32.3391C66.0875 32.6701 66.8432 32.947 67.6777 32.921C67.8099 32.9169 67.9744 33.022 68.0761 33.1244C68.5632 33.6151 69.0328 34.1235 69.5106 34.6237C71.2421 36.4375 73.0027 38.2246 74.6985 40.0709C76.3859 41.9076 78.0754 43.7404 79.8908 45.4514C81.3375 46.815 82.8041 48.1581 84.2794 49.491C85.6477 50.727 87.0474 51.9278 88.4178 53.1616C89.7778 54.3859 91.112 55.6388 92.4706 56.8648C92.9719 57.3171 93.5103 57.728 94.0738 58.1926C93.9339 58.4376 93.8108 58.6746 93.6671 58.8985C93.5351 59.1044 93.3752 59.2921 93.2373 59.4941C92.4172 60.696 91.6094 61.9064 90.7778 63.1002C90.3426 63.7247 89.8672 64.3212 89.3881 64.9597ZM63.3897 43.5511C63.8256 43.9431 64.2732 44.3231 64.6958 44.7291C68.4204 48.3072 72.4112 51.5765 76.4101 54.8369C78.4538 56.5032 80.4727 58.2001 82.516 59.8671C84.1574 61.2062 85.8215 62.5174 87.4694 63.8485C87.9399 64.2287 88.3843 64.641 88.8494 65.0284C89.0227 65.1726 89.2201 65.288 89.4492 65.4458C89.9998 64.7533 90.5244 64.0937 91.0625 63.4171C92.1113 64.1112 93.1382 64.7908 94.1829 65.4824C94.0495 65.7191 93.9393 65.9141 93.8272 66.1133C94.1302 66.4068 94.4098 66.6927 94.7055 66.9611C95.3916 67.5844 95.7752 68.3803 96.0332 69.249C96.1358 69.5942 96.2351 69.9406 96.3191 70.2907C96.8518 72.5071 97.6258 74.649 98.3378 76.8098C98.5576 77.477 98.9281 78.0605 99.4386 78.5447C99.5578 78.6578 99.7189 78.7506 99.8769 78.7937C100.247 78.8941 100.464 78.7479 100.507 78.3646C100.548 78.0077 100.56 77.6464 100.563 77.2868C100.574 75.8889 100.567 74.4912 100.583 73.0936C100.596 71.8949 100.769 70.7116 100.961 69.5308C101.028 69.1187 101.077 68.7035 101.146 68.2918C101.2 67.964 101.147 67.6622 100.981 67.3767C100.823 67.1052 100.668 66.8324 100.475 66.4959C100.939 66.6273 101.123 66.3707 101.32 66.0807C101.767 65.4265 102.242 64.7926 102.704 64.1492C102.788 64.0324 102.869 63.9125 102.945 63.7903C103.051 63.6199 102.999 63.4752 102.833 63.3939C102.627 63.2929 102.41 63.2118 102.192 63.1375C100.744 62.6421 99.4242 61.9241 98.282 60.896C98.1644 60.7901 98.051 60.6787 97.9434 60.563C97.6495 60.2464 97.6454 60.2443 97.276 60.4907C96.4385 59.7445 95.6128 58.9883 94.7642 58.2589C93.9559 57.5636 93.0976 56.925 92.3075 56.2106C90.5011 54.5773 88.7335 52.9013 86.9293 51.2657C85.9904 50.4144 84.9957 49.625 84.046 48.7853C80.9451 46.0433 77.9898 43.1545 75.213 40.081C73.8226 38.5418 72.342 37.0843 70.9246 35.5686C69.1432 33.6638 67.3826 31.7393 65.6186 29.8183C65.3559 29.5324 65.0985 29.2351 64.8861 28.9121C64.7416 28.6923 64.6359 28.4291 64.7216 28.1389C64.7439 28.0632 64.7268 27.9748 64.7241 27.8923C64.7023 27.2559 64.4171 26.7479 63.9981 26.281C63.701 25.9496 63.5775 25.5339 63.6365 25.0747C63.6677 24.8324 63.6981 24.5846 63.6806 24.3425C63.6507 23.9323 63.5826 23.5251 63.5281 23.0982C63.498 23.1119 63.5265 23.0867 63.5433 23.0928C64.5579 23.4611 65.5622 23.8602 66.5874 24.1963C68.1235 24.6996 69.5351 25.4407 70.8351 26.3846C72.4734 27.5742 74.2976 28.3191 76.2527 28.7769C77.1847 28.995 78.1142 28.9121 79.0334 28.6927C79.2317 28.6453 79.3722 28.6478 79.5445 28.7787C79.8479 29.0092 80.149 29.2804 80.5829 29.2122C81.1111 29.514 81.6458 29.8143 81.8811 30.4237C82.0417 30.8398 82.172 31.2675 82.3244 31.687C82.4421 32.0117 82.5684 32.3335 82.7002 32.6528C82.7435 32.7577 82.8028 32.8624 82.8776 32.9466C83.11 33.2088 83.4401 33.1875 83.5809 32.8695C83.6946 32.6122 83.7523 32.3198 83.7797 32.0377C83.8129 31.6971 83.7876 31.351 83.7876 30.9319C83.9232 31.0283 84.0076 31.0705 84.0689 31.135C84.5452 31.6364 85.0135 32.1453 85.4921 32.6445C85.671 32.8309 85.8635 33.0059 86.0631 33.17C86.1862 33.2711 86.3391 33.3474 86.4999 33.2441C86.6758 33.1311 86.6773 32.9483 86.6245 32.7792C86.5096 32.41 86.3746 32.0471 86.2374 31.6512C86.3256 31.6946 86.4197 31.7341 86.5069 31.7851C87.029 32.0905 87.5473 32.402 88.0717 32.7031C88.182 32.7664 88.3091 32.8132 88.4342 32.8354C88.7712 32.8947 88.9352 32.7143 88.8296 32.3898C88.7598 32.1751 88.6484 31.974 88.5493 31.7528C88.758 31.7637 88.9565 31.7911 89.1528 31.7804C89.5067 31.7611 89.647 31.5347 89.4786 31.2196C89.3803 31.0361 89.2314 30.8589 89.0632 30.7365C86.9066 29.1655 84.6782 27.7066 82.3074 26.4742C82.1576 26.3963 82.0145 26.3331 81.9339 26.145C81.8818 26.0237 81.7019 25.9406 81.5627 25.8764C81.0925 25.659 80.6707 25.4356 80.4917 24.8698C80.3565 24.4418 79.9698 24.1586 79.6029 23.8934C78.6125 23.1775 77.5133 22.672 76.3727 22.2605C74.7943 21.6908 73.3064 20.9504 71.8581 20.1026C70.3923 19.2445 68.8681 18.4859 67.3711 17.6804C66.9528 17.4552 66.5326 17.2319 66.1273 16.9843C65.2184 16.4298 64.255 16.0357 63.1907 15.9018C62.6479 15.8335 62.1106 15.7165 61.5667 15.6627C61.2556 15.6319 60.9277 15.6429 60.623 15.7087C60.2787 15.7832 59.945 15.7965 59.5969 15.7779C59.1671 15.7552 58.7346 15.7776 58.3036 15.7866C58.2504 15.7877 58.1951 15.8199 58.1457 15.8472C56.561 16.721 55 16.6469 53.4848 15.6916C53.2204 15.5248 53.0615 15.5475 52.7938 15.67C52.2067 15.9387 51.5869 16.1369 50.9792 16.3604C50.2765 16.6189 49.5628 16.8506 48.8719 17.1379C48.3434 17.3581 47.8418 17.6431 47.3313 17.9052C46.8364 18.1594 46.4992 18.5733 46.2583 19.0571C45.9055 19.7656 45.537 20.4718 45.2581 21.2104C44.7882 22.4541 44.2252 23.6452 43.5765 24.8063C42.1994 27.2707 41.1637 29.8701 40.542 32.6357C40.2222 34.0568 39.918 35.4757 39.7628 36.9249C39.7451 37.0919 39.6932 37.2671 39.6117 37.4133C39.0752 38.3765 38.4253 39.2447 37.566 39.9575C37.0688 40.3698 36.6296 40.8533 36.1743 41.3145C35.6468 41.8486 35.401 42.5576 35.0391 43.194C34.9116 43.4183 34.8128 43.6598 34.7119 43.8982C34.6327 44.0844 34.6351 44.2654 34.8103 44.4067C34.9686 44.5347 35.1784 44.5547 35.3655 44.3907C35.6015 44.1839 35.8097 43.9423 36.0095 43.699C36.1362 43.5445 36.2227 43.357 36.3334 43.1886C36.4888 42.9523 36.6963 42.7922 37.0762 42.7287C36.8811 43.01 36.7268 43.2241 36.5817 43.4446C36.4393 43.6606 36.2853 43.8728 36.1732 44.1044C35.9747 44.5154 36.1178 44.8639 36.5236 45.0689C36.6852 45.1504 36.8247 45.2744 36.9849 45.3589C37.1982 45.4711 37.4218 45.5636 37.6476 45.6676C37.7432 46.4314 37.8989 46.517 38.6949 46.2302C38.7064 46.2558 38.7255 46.2805 38.7277 46.3068C38.7648 46.7707 38.9878 46.9046 39.4044 46.6897C39.5544 46.612 39.6961 46.4977 39.8077 46.3706C40.1798 45.9466 40.5032 45.4889 40.7078 44.956C40.7475 44.8526 40.8008 44.7417 40.8798 44.6685C41.5133 44.0803 41.9802 43.3754 42.3316 42.5935C42.5322 42.1473 42.7015 41.6871 42.8799 41.2312C43.0954 40.6815 43.3004 40.1275 43.5196 39.5793C43.6366 39.2873 43.7505 38.9974 44.0368 38.8038C44.1718 38.7126 44.2558 38.5393 44.349 38.3942C45.2365 37.0113 46.1745 35.6657 47.1856 34.3679C48.2507 33.0014 49.025 31.4783 49.4059 29.775C49.478 29.4529 49.5009 29.1197 49.5584 28.7938C49.5948 28.5883 49.6534 28.3864 49.7275 28.0774C49.8757 28.3155 49.9664 28.4576 50.0536 28.6018C50.5171 29.3678 51.0289 30.097 51.6419 30.7539C51.9923 31.1298 52.3727 31.4466 52.8827 31.5798C52.9921 31.6086 53.0936 31.667 53.1425 31.6878C53.5023 32.3227 53.4226 32.9441 53.3561 33.5825C53.1722 35.3459 53.1068 37.1159 53.1268 38.8907C53.1394 39.9994 53.0796 41.1088 53.0619 42.218C53.0338 43.9611 53.0147 45.7042 52.99 47.4471C52.9709 48.8015 52.911 50.1564 52.9371 51.5098C52.9811 53.7709 53.0323 56.0339 53.1683 58.2906C53.304 60.547 53.5443 62.797 53.745 65.0493C53.8867 66.6419 54.0192 68.2355 54.1908 69.825C54.361 71.3995 54.5654 72.9708 54.7731 74.541C54.9052 75.5392 55.1096 76.5291 55.2115 77.53C55.3175 78.5748 55.3429 79.628 55.3965 80.6779C55.4309 81.3532 55.4529 82.0291 55.4787 82.7046C55.4806 82.7594 55.4677 82.8144 55.4565 82.9187C55.2905 82.9034 55.139 82.8861 54.9874 82.8758C54.693 82.8562 54.56 82.9795 54.5603 83.2748C54.5605 83.3604 54.5728 83.4475 54.5904 83.5317C54.7163 84.1297 54.6065 84.7083 54.4381 85.2789C54.302 85.7404 53.9452 86.0128 53.549 86.236C52.7679 86.6757 51.9435 87.0148 51.0888 87.2845C50.4299 87.4927 49.7708 87.7018 49.1184 87.9295C48.3888 88.1839 47.7485 88.5999 47.1537 89.0854C46.8348 89.3459 46.5898 89.6648 46.5183 90.0851C46.4489 90.493 46.6585 90.7614 47.0735 90.7701C49.6523 90.8253 52.2308 90.8947 54.81 90.9147C55.8601 90.923 56.9111 90.819 57.962 90.7676C58.2499 90.7535 58.5114 90.6962 58.6218 90.3578C58.68 90.4112 58.724 90.4317 58.7325 90.4622C58.8588 90.9158 59.168 91.0548 59.6151 91.0268C60.0892 90.9972 60.566 91.0109 61.0414 91.0018C61.1563 90.9992 61.2733 90.9915 61.3845 90.9659C61.745 90.8837 61.8635 90.7614 61.8211 90.3989C61.7128 89.4698 61.5743 88.5446 61.4494 87.6174C61.3704 87.0324 61.2952 86.4469 61.2168 85.8619C61.115 85.104 61.3338 84.4071 61.6219 83.7233C61.6497 83.6572 61.6928 83.5969 61.716 83.5295C61.7923 83.3094 61.6978 83.1975 61.4651 83.2303C61.2886 83.2551 61.1126 83.2851 60.8783 83.3218C61.0182 81.4459 61.1525 79.6433 61.2889 77.8123C61.5886 77.8123 61.8294 77.8101 62.0701 77.8128C62.4879 77.8177 62.9064 77.8442 63.3233 77.8278C63.9817 77.8018 64.1495 77.6421 64.149 76.9909C64.1485 76.4011 64.0922 75.8116 64.0619 75.2219C64.0398 74.7905 64.0091 74.3591 64.0003 73.9275C63.9435 71.1616 63.8815 68.3958 63.8415 65.6298C63.809 63.382 63.8245 61.1334 63.7823 58.8857C63.7472 57.0276 63.6585 55.1706 63.5941 53.313C63.5633 52.4203 63.5317 51.5276 63.5045 50.6347C63.4591 49.1512 63.4185 47.6677 63.3722 46.1844C63.3497 45.4644 63.3176 44.7447 63.2918 44.0249C63.2867 43.8839 63.2911 43.7426 63.2911 43.6014C63.3241 43.5847 63.3569 43.5679 63.3897 43.5511Z" fill="black"/>
<path fill-rule="evenodd" clip-rule="evenodd" d="M89.3881 64.9592C89.8674 64.3207 90.3426 63.7242 90.7778 63.0999C91.6094 61.9059 92.4172 60.6957 93.2373 59.4938C93.3754 59.2917 93.5351 59.1041 93.6673 58.8982C93.811 58.6743 93.9341 58.4371 94.074 58.1922C93.5104 57.7277 92.972 57.3166 92.4708 56.8645C91.1121 55.6385 89.7778 54.3856 88.4178 53.1613C87.0476 51.9275 85.6477 50.7267 84.2796 49.4905C82.8042 48.1578 81.3375 46.8147 79.8908 45.4509C78.0756 43.7401 76.3859 41.9073 74.6987 40.0704C73.0027 38.2241 71.2423 36.437 69.5106 34.6234C69.0328 34.123 68.5632 33.6148 68.0761 33.1239C67.9746 33.0217 67.81 32.9166 67.6777 32.9205C66.8432 32.9467 66.0875 32.6698 65.3496 32.3388C64.3181 31.8762 63.3657 31.2872 62.5366 30.4425C59.746 31.5631 56.8232 32.256 53.8414 32.8618C53.8003 33.1653 53.735 33.49 53.7154 33.8172C53.642 35.0391 53.5614 36.2616 53.5241 37.4847C53.4571 39.6736 53.3927 41.8633 53.3754 44.0529C53.3484 47.5113 53.3112 50.9706 53.3747 54.4279C53.4167 56.7012 53.6034 58.9734 53.7716 61.2427C53.9238 63.2962 54.1187 65.3474 54.3321 67.3958C54.538 69.3718 54.7891 71.343 55.0251 73.3157C55.1549 74.4024 55.2919 75.4884 55.4313 76.5742C55.4583 76.7853 55.5108 76.993 55.5558 77.2257C55.9665 77.2556 56.3512 77.3005 56.7368 77.3092C58.7388 77.3541 60.7409 77.3901 62.743 77.4274C62.959 77.4316 63.1759 77.4327 63.3913 77.4199C63.6857 77.402 63.7401 77.3544 63.7638 77.0573C63.7811 76.843 63.769 76.6258 63.7602 76.4103C63.7138 75.2589 63.6493 74.1078 63.6192 72.9561C63.5581 70.6229 63.5033 68.2895 63.4676 65.9554C63.4207 62.9012 63.4227 59.8459 63.3515 56.792C63.2929 54.2718 63.1521 51.7534 63.0594 49.2336C63.0059 47.7794 62.9787 46.3242 62.933 44.8697C62.9172 44.3659 62.8698 43.8627 62.8606 43.3588C62.8564 43.1362 62.7793 42.9822 62.617 42.8375C61.9181 42.2141 61.2304 41.5783 60.5329 40.9532C58.899 39.4892 57.3725 37.921 55.9472 36.254C55.8727 36.1668 55.7898 36.0775 55.7494 35.9742C55.7253 35.9126 55.7516 35.7909 55.7999 35.7523C55.8464 35.715 55.9582 35.7312 56.0272 35.7586C56.0884 35.7831 56.1338 35.8525 56.1799 35.9073C57.9461 37.9892 59.916 39.8653 61.9471 41.6848C64.1791 43.684 66.3413 45.7619 68.5921 47.7393C70.7887 49.6695 73.0562 51.5194 75.297 53.3991C76.9311 54.7697 78.5597 56.147 80.2135 57.4931C82.1691 59.085 84.1558 60.6389 86.1166 62.2245C87.1024 63.0215 88.0607 63.8522 89.0319 64.6674C89.1393 64.7575 89.2487 64.8451 89.3881 64.9592Z" fill="white"/>
<path fill-rule="evenodd" clip-rule="evenodd" d="M43.5541 38.5153C43.9677 37.7001 44.663 37.1403 45.1954 36.448C45.7205 35.7652 46.222 35.0628 46.7043 34.3487C47.2031 33.6098 47.7122 32.8716 48.134 32.0886C48.7473 30.9504 49.1178 29.7261 49.1706 28.4197C49.1872 28.0135 49.1973 28.014 49.4212 27.695C49.2808 27.1796 49.1665 26.6755 49.0033 26.1877C48.867 25.7806 48.6772 25.3912 48.5034 24.9973C48.4517 24.8798 48.3774 24.7714 48.3069 24.6631C48.2299 24.5448 48.2386 24.4177 48.3592 24.3723C48.4371 24.3427 48.6073 24.386 48.6448 24.45C48.8477 24.7972 49.0516 25.1495 49.1984 25.5225C49.3451 25.8953 49.4225 26.2951 49.5355 26.6814C49.5919 26.8742 49.631 27.0799 49.7282 27.2513C50.3756 28.3912 51.0294 29.5266 51.9378 30.491C52.6263 31.2222 53.4567 31.4566 54.4341 31.3113C57.265 30.8902 59.9347 29.948 62.5478 28.822C62.9838 28.6342 63.4073 28.4161 63.8292 28.1974C63.975 28.1217 64.1906 28.0184 64.2121 27.8987C64.2557 27.6562 64.2124 27.3885 64.1574 27.1417C64.1286 27.0128 63.9997 26.9063 63.9148 26.7902C63.7789 26.6043 63.6303 26.4264 63.5081 26.232C63.262 25.8412 63.1666 25.4177 63.2319 24.9515C63.2736 24.6532 63.3053 24.3445 63.2728 24.0478C63.2425 23.77 63.1405 23.4945 63.037 23.231C62.8901 22.8571 62.7118 22.4956 62.5501 22.1273C62.5274 22.0758 62.5005 22.0093 62.5149 21.9618C62.5373 21.8879 62.5799 21.8021 62.6406 21.7646C62.6761 21.7428 62.7722 21.7933 62.8248 21.8328C62.8672 21.8643 62.9049 21.9258 62.911 21.9781C62.9539 22.3365 63.2371 22.4616 63.5043 22.6038C64.4632 23.1142 65.4893 23.4594 66.5234 23.7671C68.0608 24.2248 69.4516 24.9663 70.7732 25.8513C71.5871 26.3964 72.3785 26.9762 73.2813 27.3733C74.2325 27.7918 75.2105 28.1345 76.2198 28.3809C77.0761 28.5898 77.9375 28.5212 78.7949 28.3773C79.0967 28.3265 79.2937 28.1653 79.4262 27.8621C79.6737 27.296 79.9591 26.7436 80.2665 26.2073C80.4289 25.9238 80.4282 25.6678 80.3195 25.3858C80.1318 24.8985 79.8026 24.53 79.3792 24.2315C78.6453 23.7139 77.8607 23.293 77.0291 22.9573C76.6819 22.8172 76.3372 22.6696 75.9849 22.5432C74.5422 22.0264 73.186 21.3403 71.8613 20.5689C70.3935 19.714 68.8758 18.9448 67.3811 18.136C66.9 17.8757 66.4134 17.6233 65.9465 17.3392C65.0361 16.7849 64.0725 16.3966 63.0044 16.2801C62.6186 16.2379 62.2368 16.1563 61.8542 16.087C61.4075 16.0065 60.9675 16.0266 60.5263 16.1355C60.348 16.1797 60.1593 16.1943 59.9749 16.1974C59.4879 16.2062 59.0007 16.1972 58.5136 16.2057C58.418 16.2073 58.3167 16.2419 58.2289 16.2844C56.5859 17.0769 54.976 17.0252 53.4006 16.0975C53.2632 16.0167 53.152 15.9475 52.9667 16.0176C51.9169 16.4153 50.8591 16.7915 49.8046 17.1773C49.507 17.286 49.2114 17.3994 48.9166 17.5157C48.7828 17.5684 48.6402 17.614 48.5247 17.6954C48.0911 18.0014 47.6468 18.2831 47.1715 18.5249C46.9842 18.6204 46.8325 18.844 46.7337 19.0435C46.3124 19.8939 45.8712 20.739 45.5235 21.6199C45.0726 22.7619 44.5615 23.8672 43.9544 24.9344C42.8177 26.932 41.8998 29.0308 41.2921 31.2478C40.9156 32.6212 40.6378 34.0219 40.34 35.4156C40.2537 35.8191 40.1927 36.247 40.4682 36.6254C40.51 36.6828 40.5385 36.7543 40.5906 36.7996C41.4581 37.5549 42.4561 38.0828 43.5541 38.5153Z" fill="#027A48"/>
<path fill-rule="evenodd" clip-rule="evenodd" d="M47.051 89.8082H58.2463C58.2673 89.6258 58.2639 89.4816 58.3061 89.3521C58.3369 89.2571 58.4278 89.1816 58.492 89.0976C58.5704 89.169 58.6769 89.2263 58.7215 89.315C58.8233 89.5174 58.8949 89.7352 58.9834 89.9589C59.7818 89.9131 60.5507 89.869 61.3706 89.8219C61.2974 89.2901 61.2332 88.8088 61.1649 88.3282C61.0474 87.502 60.9208 86.677 60.8103 85.8499C60.7342 85.2813 60.8433 84.7317 61.0288 84.1946C61.0748 84.0618 61.1195 83.9285 61.1882 83.7263C59.095 83.795 57.0801 83.4506 55.0056 83.3044C55.0056 83.4775 55.0137 83.6024 55.004 83.7263C54.9692 84.169 54.951 84.6147 54.8843 85.0531C54.7823 85.7243 54.3914 86.2013 53.8093 86.5389C52.9202 87.055 51.9741 87.434 50.9943 87.7363C50.5269 87.8807 50.0598 88.0269 49.5934 88.1746C48.8152 88.4212 48.1184 88.8199 47.477 89.3188C47.312 89.4469 47.1424 89.5776 47.051 89.8082Z" fill="#F6FEF9"/>
<path fill-rule="evenodd" clip-rule="evenodd" d="M99.5762 78.0823C99.5619 77.0645 99.5179 76.1294 99.5423 75.1959C99.5911 73.3119 99.5706 71.4215 99.8702 69.553C99.9839 68.8438 100.153 68.1427 100.317 67.4425C100.364 67.2436 100.358 67.0852 100.24 66.9159C100.117 66.7396 100.011 66.5494 99.9117 66.3579C99.7442 66.0329 99.8276 65.9172 100.2 65.9401C100.255 65.9435 100.31 65.95 100.321 65.9511C100.8 65.0958 101.261 64.2725 101.745 63.4094C100.223 62.8451 98.8165 62.0241 97.6106 60.8096C97.3606 61.0564 97.1913 61.3312 97.0251 61.6102C96.3253 62.7853 95.6249 63.9597 94.9191 65.131C94.7417 65.4252 94.5432 65.7066 94.3433 66.0106C94.5971 66.2718 94.8292 66.524 95.0756 66.7612C95.6936 67.3563 96.0999 68.0778 96.3393 68.8921C96.5666 69.6653 96.7489 70.4518 96.9845 71.2221C97.4642 72.7905 97.9589 74.3546 98.4639 75.9152C98.6184 76.3931 98.8122 76.8599 99.0146 77.3199C99.1336 77.5904 99.3003 77.8415 99.5762 78.0823Z" fill="#F6FEF9"/>
<path fill-rule="evenodd" clip-rule="evenodd" d="M42.8962 40.0074C42.3237 39.7064 41.7695 39.4358 41.2362 39.1286C40.714 38.8275 40.213 38.4892 39.6754 38.1499C39.619 38.2238 39.5469 38.3078 39.4865 38.3996C39.0484 39.066 38.5182 39.6451 37.9188 40.1738C37.38 40.6492 36.8334 41.1358 36.3951 41.6991C35.9762 42.2376 35.6899 42.8801 35.3508 43.4799C35.2619 43.6369 35.1931 43.8049 35.1148 43.9681C35.1433 43.9881 35.1716 44.0081 35.2003 44.0283C35.3019 43.921 35.4133 43.8213 35.5029 43.7049C35.6342 43.534 35.7678 43.3604 35.8682 43.1709C36.0899 42.7525 36.4178 42.4824 36.8721 42.3467C37.2134 42.2447 37.4789 42.0227 37.6983 41.7458C37.7337 41.7009 37.7566 41.6463 37.7905 41.6C37.8712 41.4897 37.9785 41.4666 38.0935 41.5345C38.226 41.6128 38.2058 41.73 38.1312 41.8313C38.0039 42.0042 37.8636 42.1673 37.7576 42.2989C37.8662 42.5834 37.9644 42.8412 38.0609 43.0941C38.6785 42.7377 38.8371 42.7983 39.0473 43.4965C39.5398 43.2234 39.6998 43.2879 40.0929 43.9387C40.3684 43.8338 40.6141 43.8882 40.7856 44.2041C41.9673 42.9924 42.3624 41.4453 42.8962 40.0074Z" fill="white"/>
<path fill-rule="evenodd" clip-rule="evenodd" d="M91.2387 63.0814C92.3443 63.807 93.3627 64.4753 94.4137 65.1654C95.3659 63.7948 96.1067 62.3468 96.9738 60.9423C96.8937 60.8218 96.8258 60.6767 96.7205 60.5676C96.0313 59.8529 95.305 59.1786 94.4808 58.5397C93.2733 59.9464 92.47 61.6188 91.2387 63.0814Z" fill="white"/>
<path fill-rule="evenodd" clip-rule="evenodd" d="M60.6506 81.329C60.7337 80.1383 60.8135 78.9959 60.8934 77.8544C60.5091 77.7019 56.2026 77.6007 55.6524 77.7363C55.7092 78.8735 55.766 80.0157 55.8246 81.1933C55.923 81.2089 56.031 81.2371 56.1399 81.2418C57.3036 81.2897 58.4669 81.3402 59.6309 81.3755C59.9569 81.3853 60.2843 81.3472 60.6506 81.329Z" fill="white"/>
<path fill-rule="evenodd" clip-rule="evenodd" d="M83.2662 32.6545C83.3008 32.4665 83.3654 32.2782 83.3646 32.0904C83.3621 31.313 83.3398 30.5357 83.3246 29.7584C83.3243 29.7438 83.3221 29.7295 83.321 29.7151C83.281 29.1067 83.3976 29.0221 83.937 29.2685C84.9193 29.7174 85.8991 30.1719 86.8847 30.6136C87.41 30.8488 87.9425 31.0691 88.4776 31.2824C88.657 31.354 88.8535 31.3823 89.0422 31.4306C89.0601 31.4001 89.0779 31.3697 89.0958 31.339C88.9813 31.222 88.8811 31.0846 88.75 30.9907C86.6772 29.5022 84.5458 28.1052 82.2906 26.9044C82.1393 26.824 81.9821 26.7544 81.7829 26.6582C81.358 27.3365 80.9902 28.0241 80.6657 28.7686C80.8902 28.9179 81.087 29.06 81.2942 29.1845C81.8815 29.5379 82.2237 30.0616 82.4247 30.7075C82.5997 31.2703 82.8143 31.8212 83.018 32.3751C83.0549 32.4755 83.1234 32.5642 83.1773 32.6583C83.2071 32.657 83.2366 32.6557 83.2662 32.6545Z" fill="white"/>
<path fill-rule="evenodd" clip-rule="evenodd" d="M64.2615 28.4287C60.9165 30.0657 57.4455 31.3248 53.7407 31.8112C53.6947 32.2451 53.8135 32.3897 54.1785 32.3778C54.2644 32.3752 54.352 32.3682 54.4354 32.3491C56.9034 31.7881 59.3762 31.2404 61.7393 30.3087C62.5138 30.0034 63.2722 29.6534 64.0223 29.2914C64.5134 29.0547 64.5215 28.9588 64.2615 28.4287Z" fill="white"/>
<path fill-rule="evenodd" clip-rule="evenodd" d="M55.8015 81.6793C55.8368 82.1156 55.8687 82.5097 55.9044 82.9506C57.4286 83.1215 58.917 83.3353 60.4816 83.305C60.5223 82.7943 60.5616 82.3045 60.6042 81.7722C58.983 81.7837 57.4164 81.5897 55.8015 81.6793Z" fill="white"/>
<path fill-rule="evenodd" clip-rule="evenodd" d="M64.7586 29.3642C64.1404 29.6867 63.5715 29.9836 63.0009 30.2811C63.6793 31.225 66.2359 32.5071 67.4654 32.4939C66.6226 31.3652 65.5915 30.4534 64.7586 29.3642Z" fill="white"/>
<path fill-rule="evenodd" clip-rule="evenodd" d="M58.1402 90.2941C57.8458 90.1567 47.3247 90.2094 46.9707 90.335C50.6957 90.4989 54.4207 90.6741 58.1402 90.2941Z" fill="white"/>
<path fill-rule="evenodd" clip-rule="evenodd" d="M40.2998 37.0692C40.1643 37.2877 40.068 37.4427 39.9934 37.563C40.1235 38.0054 40.4655 38.2035 40.792 38.4011C41.3334 38.7288 41.8886 39.0342 42.4426 39.3403C42.578 39.4149 42.7323 39.4549 42.9263 39.5294C43.0305 39.2898 43.1238 39.0753 43.2291 38.8335C42.1763 38.3693 41.1924 37.8662 40.2998 37.0692Z" fill="#027A48"/>
<path fill-rule="evenodd" clip-rule="evenodd" d="M100.602 67.8419C100.48 68.472 100.325 69.0979 100.244 69.733C99.9132 72.3081 99.9331 74.8977 99.9734 77.4867C99.978 77.7715 100.019 78.056 100.097 78.3487C100.108 78.2413 100.128 78.1339 100.128 78.0262C100.136 76.7607 100.141 75.495 100.144 74.2296C100.149 72.7458 100.257 71.2711 100.515 69.8086C100.589 69.384 100.655 68.9573 100.711 68.5297C100.74 68.3072 100.739 68.0808 100.751 67.8562L100.602 67.8419Z" fill="white"/>
<path fill-rule="evenodd" clip-rule="evenodd" d="M81.4997 26.2729C81.278 26.1608 81.1018 26.0717 80.8844 25.9616C80.3982 26.7221 79.9852 27.4869 79.6512 28.3453C79.8172 28.478 79.9793 28.6073 80.1918 28.7771C80.634 27.9305 81.0548 27.1251 81.4997 26.2729Z" fill="#027A48"/>
<path fill-rule="evenodd" clip-rule="evenodd" d="M83.7706 29.8014C83.7024 30.0857 83.7194 30.2438 83.8726 30.4007C84.5744 31.1187 85.264 31.8485 85.9588 32.5732C86.0067 32.6231 86.0613 32.6667 86.1783 32.7725C86.0927 32.2629 85.9005 31.9027 85.6043 31.593C85.5459 31.5317 85.4473 31.491 85.4201 31.4203C85.1227 30.6493 84.343 30.3929 83.7706 29.8014Z" fill="white"/>
<path fill-rule="evenodd" clip-rule="evenodd" d="M39.4714 43.7662C38.897 44.2473 38.0905 45.5723 38.1363 45.9976C38.2304 45.9565 38.3239 45.932 38.3993 45.8808C39.0048 45.4705 39.3636 44.8783 39.6129 44.2087C39.6803 44.0276 39.647 43.8725 39.4714 43.7662Z" fill="white"/>
<path fill-rule="evenodd" clip-rule="evenodd" d="M88.3505 32.2998C88.3009 32.2196 88.2647 32.1255 88.1994 32.061C87.7612 31.6271 87.3325 31.1877 86.7293 30.9627C86.2591 30.7871 85.8106 30.5539 85.3514 30.3487C85.2528 30.3046 85.1501 30.2699 85.0338 30.2633C86.0889 31.0105 87.132 31.7682 88.2787 32.3631C88.3027 32.342 88.3267 32.3209 88.3505 32.2998Z" fill="white"/>
<path fill-rule="evenodd" clip-rule="evenodd" d="M37.2244 44.9832C37.4128 45.2008 37.5655 45.2001 37.7155 45.0557C37.8283 44.9473 37.9453 44.837 38.0324 44.7088C38.2013 44.4599 38.3591 44.2024 38.5049 43.9392C38.6082 43.7525 38.679 43.5504 38.5404 43.267C38.0106 43.806 37.6106 44.3789 37.2244 44.9832Z" fill="white"/>
<path fill-rule="evenodd" clip-rule="evenodd" d="M36.8159 44.7357C37.2142 44.1909 37.4563 43.5826 37.6344 42.8943C37.5293 42.9073 37.4727 42.8981 37.4579 42.9187C37.1574 43.3382 36.8435 43.7497 36.5716 44.1873C36.4036 44.4573 36.4505 44.5206 36.8159 44.7357Z" fill="white"/>
<path fill-rule="evenodd" clip-rule="evenodd" d="M100.923 65.9279C101.451 65.2 101.979 64.472 102.506 63.7455C102.385 63.5838 102.26 63.5605 102.139 63.7011C101.578 64.3548 101.164 65.0914 100.923 65.9279Z" fill="white"/>
<path fill-rule="evenodd" clip-rule="evenodd" d="M39.2044 46.3C39.7744 46.0421 40.431 44.9267 40.3248 44.3958C39.938 44.6734 39.2495 45.8436 39.2044 46.3Z" fill="white"/>
<path fill-rule="evenodd" clip-rule="evenodd" d="M61.3561 90.5472C61.4275 90.3358 61.3651 90.2379 61.1709 90.2413C60.8983 90.2458 60.6254 90.2503 60.3534 90.2667C59.9721 90.2898 59.5915 90.3241 59.1111 90.3612C59.2413 90.491 59.2943 90.5901 59.3644 90.6044C59.5311 90.6381 59.7064 90.6419 59.8776 90.639C60.2649 90.632 60.6521 90.6166 61.0391 90.5977C61.1498 90.5923 61.2593 90.5633 61.3561 90.5472Z" fill="white"/>
<path fill-rule="evenodd" clip-rule="evenodd" d="M40.083 83.8879C37.409 82.8261 35.9242 82.1553 35.6286 81.8754C35.333 81.5956 34.911 81.0578 34.3628 80.2621C34.6157 78.7179 34.6157 77.7645 34.3628 77.4019C34.11 77.0393 33.9183 76.6356 33.7879 76.191C34.793 74.6742 35.4065 73.4241 35.6286 72.4405C35.9617 70.9652 36.2948 69.619 35.9617 68.5927C35.7396 67.9085 35.3987 67.0306 34.9388 65.9589C35.0728 68.7773 35.0728 70.5379 34.9388 71.2408C34.8048 71.9437 34.1471 73.239 32.9656 75.1269L30.9497 74.4158L29.4562 74.2524L22.1119 74.6779L17.639 74.2524L15.1721 72.9669V72.151C16.0902 72.344 16.7308 72.4405 17.0941 72.4405C17.639 72.4405 20.0422 72.2099 20.3556 71.6775C20.6689 71.1451 21.308 69.7263 20.1427 69.3103C19.3659 69.033 18.006 68.9586 16.0632 69.0873L13.5628 67.2978L13.2091 66.3674L10.6917 65.1664C9.77288 65.1575 9.18747 65.2384 8.93544 65.4091C8.5574 65.6651 7.03566 66.7835 6.40943 66.7835C5.99194 66.7835 4.22892 66.7835 1.12035 66.7835C1.13122 67.3348 1.23048 67.7476 1.41815 68.022C1.60581 68.2964 2.49672 68.7927 4.09086 69.5109L2.7602 69.8888C2.5596 70.1675 2.5596 70.3769 2.7602 70.5169C2.9608 70.6569 4.0243 70.9385 5.95068 71.3617C6.65609 72.0786 7.13354 72.4946 7.38303 72.6098C7.63251 72.7249 7.93353 72.844 8.2861 72.9669L9.69855 75.3571L9.78358 76.191L11.3529 78.6122C10.471 79.0211 9.91954 79.2255 9.69855 79.2255C9.47755 79.2255 8.78186 79.1477 7.61148 78.9922V79.7218L10.4091 80.0377L7.92003 80.8387L7.38303 81.1671L7.61148 81.6149L14.3769 82.1075L15.6734 81.8754L16.2451 82.3662L21.7233 83.6211L25.1634 83.8879L29.119 83.4537L30.1417 83.0917L31.2315 83.6211C32.1216 83.799 32.6996 83.8879 32.9656 83.8879C33.2317 83.8879 33.6241 83.8879 34.143 83.8879L36.2798 84.6732L38.0678 85.47L38.6442 85.2589L38.0678 84.357L39.2412 84.3572L40.083 83.8879Z" fill="#D8D8D8"/>
<path fill-rule="evenodd" clip-rule="evenodd" d="M7.75713 79.3136C8.11425 79.3136 8.4465 79.2693 8.76253 79.3225C9.51211 79.4483 10.2184 79.3099 10.9202 79.0726C11.359 78.9244 11.4059 78.9495 11.6397 79.4222C11.5647 79.4566 11.4928 79.5029 11.4138 79.5244C10.3403 79.8173 9.24602 79.7043 8.15716 79.6818C7.97977 79.678 7.81932 79.603 7.75713 79.3136ZM2.76008 70.1009C3.4381 69.8861 4.10962 69.8755 4.78313 69.8962C4.8419 69.898 4.92825 69.9543 4.95151 70.0071C5.10925 70.368 5.25383 70.7347 5.4213 71.1452C5.15485 71.1111 4.94159 71.0983 4.73481 71.0547C4.22986 70.9483 3.72437 70.8405 3.22591 70.7075C2.96613 70.6379 2.76765 70.4755 2.76008 70.1009ZM5.43933 69.9568C5.48061 69.931 5.52226 69.9053 5.56372 69.8793C5.62808 69.9601 5.69802 70.0374 5.75625 70.1225C6.00756 70.4892 6.23326 70.8757 6.50962 71.2222C6.92949 71.7488 7.46941 72.13 8.10524 72.3617C8.24892 72.4143 8.44362 72.4747 8.52384 72.2867C8.61073 72.0828 8.41928 72.0233 8.2738 71.9604C8.23432 71.9433 8.19213 71.9328 8.15229 71.916C7.21865 71.522 6.58354 70.8238 6.1415 69.9323C6.11716 69.8833 6.13123 69.8155 6.12762 69.7565C6.34737 69.9503 6.48925 70.1807 6.66899 70.3769C7.29671 71.0619 8.01348 71.6285 8.87484 72.0035C9.14904 72.1228 9.4144 72.2762 9.65561 72.4527C9.84886 72.5941 9.81677 72.7907 9.60188 72.8948C9.49156 72.9479 9.3477 72.9813 9.2298 72.9611C8.89196 72.9029 8.54709 72.8464 8.22729 72.7287C7.34232 72.4032 6.64808 71.7926 6.00576 71.1282C5.69406 70.8057 5.56318 70.376 5.43933 69.9568ZM34.4173 80.7328C34.5139 80.8438 34.5769 80.9026 34.6237 80.9722C35.1552 81.7593 35.8822 82.3087 36.731 82.7089C37.0953 82.8809 37.4636 83.045 37.8332 83.2058C38.4256 83.4634 39.0205 83.7152 39.542 83.9384C39.4504 84.0661 39.3599 84.1921 39.2411 84.3574C37.2476 83.802 35.4768 82.8735 34.1428 81.1835C34.2233 81.0513 34.3037 80.919 34.4173 80.7328ZM35.0979 66.6293C35.1584 66.6783 35.1896 66.6911 35.1992 66.7133C35.6751 67.8069 36.0036 68.9325 35.9572 70.1421C35.8885 71.931 35.2698 73.5448 34.3764 75.0662C34.2201 75.3324 33.9845 75.5524 33.7368 75.8527C33.5039 75.6038 33.3137 75.4004 33.1231 75.1967C33.3346 74.9551 33.5504 74.7583 33.706 74.5219C34.1599 73.8329 34.5136 73.0904 34.7377 72.2952C35.2212 70.5806 35.2621 68.8296 35.1328 67.0668C35.1231 66.9318 35.1114 66.797 35.0979 66.6293ZM8.76072 73.4172C9.14633 73.3784 9.47461 73.4037 9.75981 73.3047C10.3179 73.1113 10.4137 72.5189 9.95198 72.1562C9.67291 71.937 9.34986 71.7605 9.02338 71.6179C8.21251 71.2635 7.55252 70.7197 6.97059 70.0691C6.89253 69.9817 6.84187 69.8701 6.76093 69.7419C7.05676 69.6617 7.29509 69.6069 7.52584 69.5305C7.66032 69.4861 7.80382 69.4288 7.90442 69.3352C7.97075 69.2738 8.01222 69.1241 7.98572 69.0381C7.94173 68.8955 7.80653 68.9237 7.698 68.9871C7.17845 69.2896 6.60391 69.3311 6.02541 69.323C4.98323 69.3082 3.9544 69.1674 2.96469 68.842C2.54699 68.7048 2.15652 68.4719 1.77199 68.2507C1.52411 68.1081 1.38836 67.8689 1.42352 67.5433C1.48048 67.54 1.53709 67.5271 1.58991 67.5359C2.05719 67.6136 2.43613 67.4779 2.7435 67.1079C2.81326 67.0237 2.96199 66.9671 3.07556 66.965C3.39158 66.9594 3.70832 66.9864 4.02453 67.0054C4.92031 67.0587 5.80601 66.983 6.6935 66.8555C7.10688 66.7959 7.43408 66.6315 7.77444 66.4032C8.24928 66.0845 8.76343 65.8132 9.28839 65.585C9.58133 65.4575 9.93521 65.3901 10.2527 65.4139C11.187 65.4847 12.047 65.8119 12.831 66.3273C12.964 66.4148 13.0776 66.5318 13.2 66.6351C13.0368 66.6434 12.9249 66.5779 12.8041 66.5451C12.4446 66.4474 12.0857 66.3344 11.7187 66.2812C11.4144 66.2372 11.3154 66.3526 11.2997 66.6565C11.3668 66.6672 11.4358 66.6845 11.5056 66.6879C12.2694 66.7245 12.9298 67.0207 13.5126 67.4991C13.8463 67.7731 14.1753 68.0549 14.4906 68.3498C15.0714 68.8928 15.7641 69.2062 16.5436 69.2646C17.1435 69.3096 17.7512 69.2534 18.3555 69.2391C18.6715 69.2316 18.9876 69.2092 19.3036 69.2078C19.7197 69.2062 20.0429 69.3927 20.3097 69.7089C20.8237 70.3186 20.7878 70.9278 20.1896 71.4509C19.7319 71.851 19.1949 72.0987 18.5974 72.1704C17.6308 72.2867 16.6553 72.2734 15.748 71.8928C14.5104 71.3734 13.4118 70.6424 12.6399 69.5032C12.5755 69.4082 12.5393 69.2885 12.4603 69.2101C12.39 69.1405 12.2651 69.058 12.1881 69.0774C12.0304 69.1167 12.0342 69.2721 12.0902 69.3985C12.154 69.5422 12.2344 69.6799 12.3201 69.8122C12.8075 70.5672 13.4807 71.1333 14.2393 71.5869C14.6245 71.8171 14.7358 72.1412 14.8008 72.5176C13.7621 73.3968 10.6605 74.8942 9.70969 74.9733C9.34031 74.4952 8.98967 73.9946 8.76072 73.4172ZM10.0387 76.0499C10.8808 75.5331 11.8456 75.2578 12.7205 74.7981C13.6121 74.3298 14.4868 73.8315 15.2979 73.1924C15.4747 73.3108 15.6465 73.4138 15.8052 73.534C16.51 74.0682 17.3038 74.4058 18.1736 74.5217C19.1148 74.647 20.0629 74.7788 21.0093 74.792C22.6506 74.8147 24.2938 74.7678 25.935 74.711C26.7969 74.6813 27.6556 74.5623 28.5164 74.4949C29.0332 74.4543 29.5573 74.3727 30.0682 74.4184C31.8744 74.5798 33.1974 75.5039 34.0236 77.1094C34.6985 78.4213 34.5293 79.6989 33.7602 80.9197C33.5689 81.2237 33.5628 81.2868 33.8156 81.5496C34.6883 82.4569 35.6342 83.2721 36.7169 83.9251C37.1728 84.2 37.6067 84.5122 38.0439 84.8169C38.1642 84.9007 38.2602 85.0194 38.3819 85.136C38.1207 85.3417 37.9345 85.2485 37.7342 85.1515C36.8784 84.7372 36.0174 84.334 35.1597 83.9235C34.6427 83.6761 34.1038 83.555 33.5273 83.5898C33.1824 83.6105 32.8354 83.6087 32.4898 83.5997C31.8152 83.5822 31.163 83.4403 30.6054 83.054C30.1342 82.7275 29.7083 82.3351 29.2638 81.97C29.1082 81.8422 28.9633 81.7003 28.801 81.5819C28.6864 81.4979 28.5326 81.4843 28.47 81.6304C28.4387 81.7028 28.4911 81.8552 28.5566 81.9183C28.8679 82.2177 29.1987 82.4968 29.5178 82.7884C29.5969 82.8609 29.6584 82.9527 29.7487 83.0599C29.6119 83.1063 29.5196 83.1436 29.4241 83.1692C28.6278 83.3816 27.8146 83.4746 26.9945 83.5445C25.4953 83.6725 23.9936 83.6752 22.5067 83.4883C20.4474 83.2296 18.4321 82.7255 16.4235 82.2065C16.3337 82.1833 16.2497 82.1371 16.1545 82.0984C16.192 82.0526 16.2052 82.0208 16.2272 82.0127C16.3352 81.9725 16.4448 81.9368 16.5549 81.9029C17.2531 81.688 17.885 81.3531 18.4318 80.8653C18.5174 80.789 18.6128 80.7146 18.671 80.6194C18.7063 80.5615 18.7105 80.4375 18.6715 80.3939C18.6301 80.3473 18.5037 80.3253 18.4458 80.3547C18.3067 80.4256 18.1785 80.5238 18.059 80.6264C17.6706 80.9594 17.2268 81.1863 16.7532 81.3736C15.532 81.8568 14.2604 81.9866 12.9723 81.8546C11.5627 81.71 10.1535 81.6999 8.74089 81.7032C8.40197 81.7039 8.06288 81.6534 7.74794 81.6287C7.7912 81.4236 7.82509 81.2644 7.86241 81.0877C7.9511 81.0674 8.0481 81.0457 8.14472 81.0225C8.94208 80.8299 9.7407 80.6421 10.5363 80.4431C11.2911 80.2543 11.9507 79.8768 12.5506 79.3901C12.7855 79.1993 13.0114 78.9976 13.2438 78.8038C13.8097 78.3319 14.3817 77.8689 15.1225 77.6913C15.1506 77.6847 15.1892 77.6832 15.2032 77.6647C15.2586 77.5917 15.3062 77.5129 15.3565 77.4361C15.2775 77.3858 15.1994 77.2955 15.1194 77.2935C14.9797 77.2902 14.8347 77.3286 14.6995 77.3724C14.1558 77.5487 13.6938 77.8671 13.2579 78.2264C12.8818 78.5365 12.5092 78.8511 12.1416 79.1582C11.5618 78.7014 10.2974 76.8316 10.0387 76.0499ZM38.5134 84.6051C38.7356 84.6678 38.8575 84.7145 38.9837 84.7356C39.2543 84.7807 39.5202 84.8144 39.7735 84.6372C39.8852 84.5589 40.0444 84.5512 40.1758 84.4969C40.4767 84.3725 40.5375 84.0985 40.2938 83.889C40.1436 83.76 39.9602 83.6612 39.778 83.58C39.0014 83.235 38.2181 82.9049 37.4405 82.5618C37.1508 82.434 36.8689 82.2882 36.5857 82.1461C35.8024 81.7535 35.2322 81.133 34.7373 80.4283C34.6311 80.277 34.6573 80.1346 34.6872 79.9769C34.7434 79.6801 34.8038 79.3836 34.8388 79.0842C34.9371 78.2394 34.7573 77.4519 34.3265 76.7193C34.2251 76.5473 34.1377 76.3674 34.051 76.2043C34.0831 76.1372 34.093 76.0909 34.1209 76.0618C35.2031 74.9447 35.6937 73.5272 36.1085 72.0821C36.7982 69.6783 36.2531 67.4685 34.9843 65.3867C34.9693 65.362 34.9533 65.3382 34.9365 65.3147C34.8523 65.1977 34.7734 65.0521 34.5972 65.1126C34.3953 65.1817 34.422 65.3596 34.46 65.5136C34.6549 66.3021 34.7079 67.1063 34.7344 67.913C34.7788 69.271 34.7173 70.6202 34.3822 71.9462C34.1828 72.7361 33.8296 73.4594 33.4316 74.1635C33.3681 74.2757 33.2886 74.3804 33.2051 74.479C32.8475 74.9007 32.7399 74.9165 32.2708 74.6413C31.2447 74.0386 30.1287 73.9259 28.9707 74.0355C28.1537 74.1127 27.3372 74.2063 26.5182 74.2495C25.1376 74.3224 23.7551 74.4053 22.3738 74.4013C20.9928 74.3974 19.6095 74.338 18.2405 74.1004C17.2003 73.9196 16.32 73.4406 15.5084 72.7442C15.7157 72.4967 15.9584 72.4385 16.242 72.4992C17.0532 72.6727 17.8682 72.7049 18.6892 72.5739C19.4213 72.4571 20.0645 72.1518 20.6057 71.6482C21.1418 71.1495 21.2518 70.4382 20.9055 69.7933C20.8175 69.63 20.7067 69.4789 20.5852 69.2893C20.6982 69.202 20.8087 69.1169 20.919 69.0315C22.4597 67.835 23.9536 66.5821 25.0769 64.9684C25.8085 63.9178 26.4827 62.8237 27.1301 61.7182C28.4399 59.4819 29.3819 57.0844 30.1551 54.6161C30.4221 53.7641 30.7262 52.9235 31.0276 52.0831C31.5349 50.6679 31.8262 49.1979 32.1579 47.7372C32.4557 46.4249 32.916 45.1681 33.554 43.9806C33.8343 43.4582 34.172 42.9763 34.5942 42.5537C35.0903 42.0572 35.6877 41.7538 36.3686 41.632C36.6302 41.5851 36.9098 41.6257 37.1802 41.643C37.3185 41.652 37.4685 41.6678 37.4836 41.5024C37.4908 41.4247 37.3801 41.2774 37.3026 41.2615C37.0398 41.208 36.76 41.145 36.5006 41.1824C35.362 41.3462 34.455 41.9123 33.7674 42.8371C33.0445 43.8099 32.5709 44.9069 32.1951 46.0447C31.9515 46.7815 31.7444 47.5351 31.5872 48.2949C31.2629 49.865 30.8151 51.396 30.2775 52.9044C29.9097 53.9356 29.5567 54.9722 29.2162 56.0125C28.4136 58.4654 27.2573 60.7484 25.9063 62.9373C25.5056 63.5866 25.0875 64.228 24.6352 64.842C23.522 66.3526 22.1088 67.5593 20.6382 68.7041C20.3719 68.9114 20.1271 68.9844 19.7716 68.873C19.4262 68.7648 19.0337 68.7803 18.6625 68.7872C17.9448 68.8007 17.2322 68.9399 16.5082 68.8278C15.9223 68.7369 15.397 68.5335 14.9472 68.1467C14.6633 67.9024 14.3806 67.6561 14.1071 67.4005C14.0278 67.3266 13.9424 67.2235 13.9272 67.1234C13.8486 66.6073 13.5241 66.2725 13.1219 65.9982C12.3731 65.4873 11.5415 65.1808 10.6536 65.0081C10.0481 64.8902 9.48345 64.9991 8.92766 65.2383C8.36898 65.479 7.8451 65.7744 7.3589 66.1418C7.22532 66.2424 7.06055 66.3322 6.89866 66.3598C6.37478 66.4485 5.84531 66.5666 5.31873 66.563C4.06617 66.555 2.81398 66.4919 1.56251 66.4335C1.02763 66.4085 0.865929 66.5219 0.888283 67.0542C0.901623 67.3679 0.937317 67.6927 1.03827 67.9868C1.11327 68.2038 1.28092 68.412 1.45831 68.5658C1.8551 68.91 2.33895 69.1074 2.83742 69.2631C3.05663 69.3316 3.27945 69.3882 3.56483 69.4685C3.23907 69.5442 2.97028 69.5928 2.71032 69.67C2.3303 69.7829 2.21565 70.0131 2.32454 70.3967C2.42422 70.7475 2.67625 70.9597 3.00165 71.0711C3.34129 71.1874 3.6903 71.2854 4.04274 71.352C4.56572 71.4509 5.09698 71.5047 5.62069 71.6002C5.78041 71.6292 5.95095 71.703 6.07516 71.8063C6.67439 72.3054 7.27796 72.7918 8.00429 73.1048C8.11768 73.1535 8.2062 73.2932 8.27362 73.4094C8.55413 73.8944 8.81499 74.3909 9.09856 74.8738C9.20204 75.05 9.28172 75.2122 9.29848 75.4271C9.31579 75.6486 9.40593 75.8731 9.50327 76.0779C9.86869 76.8471 10.2907 77.5843 10.8124 78.2608C10.8721 78.3382 10.9168 78.4271 10.9961 78.5549C10.3104 78.8327 9.64677 79.0025 8.92513 78.9021C8.61308 78.8586 8.29417 78.8633 7.97851 78.8509C7.9073 78.848 7.83411 78.8586 7.76398 78.8736C7.42596 78.9464 7.23271 79.1193 7.22459 79.3506C7.21576 79.6044 7.46725 79.9686 7.72775 80.0385C7.89215 80.0829 8.0681 80.0901 8.23973 80.1011C8.7097 80.1312 9.18022 80.1546 9.66102 80.2377C9.31687 80.3226 8.97399 80.4119 8.62876 80.4912C8.20818 80.5878 7.78291 80.6653 7.36521 80.7733C7.15789 80.8269 6.93922 80.9055 6.96428 81.1988C6.96734 81.2365 6.93543 81.2777 6.91795 81.3161C6.75354 81.6742 6.80654 81.8613 7.18782 81.9403C7.72071 82.0508 8.26641 82.133 8.8094 82.1537C9.75909 82.1901 10.7113 82.1618 11.6621 82.1793C12.0208 82.1858 12.3783 82.266 12.7371 82.2741C13.4695 82.2907 14.2029 82.2774 14.9355 82.2846C15.1196 82.2864 15.3166 82.2822 15.4846 82.3435C17.1713 82.9577 18.9401 83.2372 20.6807 83.6287C22.4775 84.0329 24.3059 84.1252 26.138 84.0493C27.4616 83.9943 28.7828 83.8613 30.0539 83.4439C30.2072 83.3936 30.3296 83.4059 30.4623 83.4816C31.2951 83.9568 32.2041 84.0758 33.1377 83.9967C33.9133 83.9309 34.6171 84.1054 35.3032 84.4511C36.1519 84.8787 37.0187 85.2703 37.8707 85.692C38.1144 85.8126 38.326 85.8259 38.5615 85.6844C38.9303 85.4627 38.9932 85.1618 38.7216 84.8328C38.6767 84.7783 38.6264 84.7284 38.5134 84.6051Z" fill="black"/>
<path fill-rule="evenodd" clip-rule="evenodd" d="M10.0387 76.05C10.2974 76.8318 11.5618 78.7015 12.1416 79.1583C12.5092 78.8511 12.8818 78.5367 13.2577 78.2264C13.6936 77.8671 14.1558 77.5488 14.6995 77.3726C14.8347 77.3288 14.9797 77.2904 15.1194 77.2935C15.1994 77.2955 15.2775 77.3858 15.3565 77.4361C15.3062 77.5129 15.2586 77.5919 15.203 77.6647C15.189 77.6834 15.1504 77.6847 15.1225 77.6914C14.3817 77.8691 13.8097 78.3319 13.2436 78.8038C13.0113 78.9978 12.7854 79.1996 12.5506 79.3901C11.9505 79.877 11.2909 80.2543 10.5363 80.4431C9.7407 80.6423 8.94208 80.8301 8.14472 81.0227C8.04809 81.0459 7.95111 81.0674 7.86241 81.0878C7.82509 81.2646 7.7912 81.4238 7.74793 81.6288C8.06288 81.6536 8.40197 81.7039 8.74089 81.7032C10.1535 81.7001 11.5627 81.7101 12.9721 81.8546C14.2604 81.9868 15.532 81.857 16.7532 81.3737C17.2268 81.1864 17.6706 80.9594 18.0588 80.6266C18.1783 80.5239 18.3065 80.4256 18.4458 80.3549C18.5037 80.3256 18.6301 80.3475 18.6715 80.3941C18.7105 80.4377 18.7063 80.5615 18.671 80.6196C18.6128 80.7148 18.5174 80.789 18.4318 80.8655C17.8848 81.3533 17.2531 81.6881 16.5549 81.9031C16.4448 81.9369 16.3352 81.9727 16.2272 82.0127C16.2052 82.0209 16.192 82.0528 16.1545 82.0986C16.2497 82.1373 16.3337 82.1833 16.4235 82.2065C18.4321 82.7256 20.4472 83.2296 22.5067 83.4885C23.9936 83.6754 25.4951 83.6725 26.9945 83.5445C27.8146 83.4748 28.6276 83.3818 29.4239 83.1692C29.5196 83.1438 29.6119 83.1065 29.7487 83.0601C29.6584 82.9527 29.5969 82.8609 29.5178 82.7887C29.1987 82.497 28.8677 82.2179 28.5566 81.9185C28.4909 81.8552 28.4385 81.7029 28.4699 81.6304C28.5326 81.4845 28.6862 81.4981 28.801 81.5821C28.9633 81.7005 29.108 81.8424 29.2638 81.9702C29.7082 82.3351 30.1342 82.7275 30.6054 83.0542C31.163 83.4403 31.8152 83.5822 32.4898 83.5999C32.8354 83.6089 33.1824 83.6105 33.5273 83.5898C34.1038 83.5552 34.6425 83.6763 35.1597 83.9237C36.0173 84.334 36.8784 84.7372 37.7342 85.1515C37.9345 85.2485 38.1205 85.3419 38.3819 85.136C38.2602 85.0196 38.1642 84.9009 38.0439 84.8171C37.6067 84.5123 37.1728 84.2002 36.7167 83.9253C35.634 83.2723 34.6881 82.4569 33.8156 81.5498C33.5628 81.287 33.5688 81.2237 33.7602 80.9199C34.5293 79.6989 34.6985 78.4213 34.0236 77.1096C33.1974 75.5041 31.8744 74.58 30.068 74.4185C29.5573 74.3727 29.033 74.4543 28.5164 74.4949C27.6556 74.5623 26.7969 74.6813 25.935 74.7111C24.2938 74.768 22.6506 74.8147 21.0092 74.792C20.0627 74.7788 19.1148 74.6472 18.1736 74.5218C17.3038 74.406 16.5099 74.0684 15.805 73.5342C15.6463 73.414 15.4745 73.311 15.2979 73.1924C14.4868 73.8315 13.6119 74.33 12.7205 74.7983C11.8454 75.2578 10.8808 75.5333 10.0387 76.05Z" fill="white"/>
<path fill-rule="evenodd" clip-rule="evenodd" d="M8.55739 67.7769C8.72649 67.6989 8.83195 67.6071 8.93381 67.6109C9.32861 67.6259 9.69655 67.7503 10.0259 67.9727C10.0831 68.0113 10.1453 68.0715 10.1624 68.1335C10.1828 68.2071 10.1855 68.3176 10.1433 68.3673C10.1011 68.4169 9.96264 68.4537 9.91973 68.4225C9.59433 68.1863 9.21774 68.1013 8.8397 68.0072C8.75912 67.9873 8.69675 67.8939 8.55739 67.7769ZM8.76092 73.4174C8.98969 73.9948 9.34051 74.4956 9.70989 74.9735C10.6607 74.8944 13.7621 73.397 14.801 72.5178C14.7358 72.1414 14.6246 71.8173 14.2395 71.5871C13.4809 71.1335 12.8076 70.5674 12.3201 69.8124C12.2345 69.6801 12.1541 69.5424 12.0904 69.3987C12.0342 69.2723 12.0306 69.1171 12.1883 69.0776C12.2651 69.0582 12.3902 69.1407 12.4604 69.2103C12.5395 69.2887 12.5755 69.4084 12.6399 69.5034C13.412 70.6426 14.5104 71.3736 15.7482 71.893C16.6555 72.2735 17.6308 72.2869 18.5975 72.1706C19.1951 72.0989 19.7319 71.8512 20.1897 71.4511C20.788 70.928 20.8239 70.319 20.3097 69.7091C20.0431 69.3929 19.7199 69.2063 19.3036 69.208C18.9876 69.2094 18.6716 69.2318 18.3557 69.2393C17.7514 69.2536 17.1437 69.3098 16.5438 69.2648C15.7643 69.2063 15.0716 68.893 14.4906 68.35C14.1753 68.0551 13.8465 67.7733 13.5126 67.4993C12.93 67.0209 12.2696 66.7247 11.5056 66.6881C11.436 66.6847 11.367 66.6673 11.2999 66.6567C11.3156 66.3529 11.4146 66.2374 11.7187 66.2814C12.0857 66.3346 12.4447 66.4476 12.8043 66.5453C12.9251 66.5783 13.0371 66.6436 13.2002 66.6353C13.0776 66.532 12.964 66.415 12.831 66.3275C12.047 65.8123 11.1872 65.4849 10.2527 65.4143C9.93541 65.3903 9.58154 65.4577 9.28859 65.5852C8.76363 65.8134 8.24948 66.0847 7.77446 66.4034C7.43428 66.6317 7.1069 66.7962 6.69353 66.8557C5.80603 66.9832 4.92034 67.0589 4.02455 67.0055C3.70853 66.9866 3.39179 66.9596 3.07576 66.9652C2.96219 66.9673 2.81346 67.0239 2.74369 67.1081C2.43633 67.478 2.05721 67.6138 1.59011 67.5361C1.53729 67.5273 1.48051 67.5404 1.42372 67.5435C1.38839 67.8691 1.52413 68.1083 1.77201 68.2509C2.15654 68.4721 2.54701 68.705 2.96489 68.8422C3.95461 69.1676 4.98344 69.3084 6.02543 69.3232C6.60393 69.3313 7.17865 69.29 7.69802 68.9873C7.80673 68.9239 7.94193 68.8957 7.98574 69.0383C8.01242 69.1243 7.97078 69.2739 7.90462 69.3356C7.80384 69.429 7.66034 69.4863 7.52586 69.5308C7.2951 69.6071 7.05696 69.6619 6.76095 69.7421C6.84189 69.8703 6.89273 69.9819 6.97061 70.0693C7.55272 70.7199 8.21271 71.2636 9.02358 71.6181C9.34988 71.7607 9.67293 71.9372 9.952 72.1564C10.4139 72.5191 10.3181 73.1115 9.76001 73.3049C9.47481 73.4039 9.14653 73.3786 8.76092 73.4174Z" fill="white"/>
<path fill-rule="evenodd" clip-rule="evenodd" d="M35.0979 66.6294C35.1114 66.7972 35.1232 66.9321 35.1329 67.0671C35.2621 68.8297 35.2212 70.5807 34.7377 72.2954C34.5136 73.0905 34.1599 73.833 33.706 74.522C33.5504 74.7585 33.3346 74.9554 33.1232 75.1968C33.3137 75.4005 33.5039 75.6039 33.7368 75.8528C33.9845 75.5525 34.2202 75.3325 34.3765 75.0665C35.2699 73.5449 35.8886 71.9311 35.9573 70.1422C36.0034 68.9326 35.6752 67.807 35.1992 66.7136C35.1897 66.6914 35.1585 66.6784 35.0979 66.6294Z" fill="white"/>
<path fill-rule="evenodd" clip-rule="evenodd" d="M34.4175 80.7327C34.3039 80.9189 34.2235 81.0513 34.1431 81.1834C35.477 82.8735 37.2478 83.8019 39.2413 84.3571C39.3601 84.1918 39.4506 84.066 39.5424 83.9384C39.0206 83.7152 38.4257 83.4632 37.8333 83.2057C37.4638 83.0449 37.0955 82.8809 36.7311 82.7089C35.8824 82.3087 35.1554 81.7592 34.6241 80.9721C34.577 80.9025 34.5141 80.8438 34.4175 80.7327Z" fill="white"/>
<path fill-rule="evenodd" clip-rule="evenodd" d="M5.43934 69.957C5.56319 70.3761 5.69406 70.8059 6.00594 71.1284C6.64808 71.7929 7.3425 72.4033 8.22747 72.7289C8.5471 72.8466 8.89197 72.9032 9.2298 72.9612C9.34789 72.9814 9.49175 72.9483 9.60207 72.8949C9.81678 72.7911 9.84887 72.5942 9.65579 72.453C9.41459 72.2764 9.14904 72.1231 8.87502 72.0038C8.01349 71.6286 7.29689 71.062 6.66899 70.377C6.48926 70.1809 6.34738 69.9505 6.12763 69.7569C6.13141 69.8158 6.11735 69.8836 6.14169 69.9324C6.58372 70.8241 7.21865 71.5223 8.15248 71.9162C8.19232 71.933 8.2345 71.9436 8.27399 71.9605C8.41929 72.0235 8.61092 72.0829 8.52385 72.2868C8.44362 72.475 8.24893 72.4145 8.10525 72.362C7.4696 72.1304 6.92967 71.7489 6.50963 71.2225C6.23327 70.876 6.00757 70.4893 5.75644 70.1226C5.69821 70.0375 5.62827 69.9604 5.56373 69.8794C5.52226 69.9054 5.48062 69.9312 5.43934 69.957Z" fill="white"/>
<path fill-rule="evenodd" clip-rule="evenodd" d="M2.7602 70.1007C2.76777 70.4754 2.96625 70.6378 3.22603 70.7074C3.72449 70.8406 4.2298 70.9482 4.73493 71.0546C4.9417 71.0982 5.15497 71.111 5.42142 71.1453C5.25394 70.7348 5.10936 70.3679 4.95144 70.007C4.92819 69.9544 4.84201 69.8981 4.78324 69.8961C4.10956 69.8754 3.43821 69.8862 2.7602 70.1007Z" fill="white"/>
<path fill-rule="evenodd" clip-rule="evenodd" d="M7.7573 79.3138C7.8195 79.6032 7.97995 79.6782 8.15734 79.682C9.2462 79.7045 10.3405 79.8175 11.414 79.5246C11.493 79.5031 11.5649 79.4568 11.6399 79.4224C11.4061 78.9497 11.3592 78.9246 10.9204 79.0728C10.2186 79.3101 9.51229 79.4485 8.7627 79.3227C8.44668 79.2695 8.11443 79.3138 7.7573 79.3138Z" fill="white"/>
<path fill-rule="evenodd" clip-rule="evenodd" d="M8.55733 67.7768C8.69668 67.8938 8.75906 67.9871 8.83964 68.007C9.21768 68.1011 9.59427 68.1862 9.91967 68.4223C9.96257 68.4535 10.101 68.4167 10.1432 68.3672C10.1854 68.3174 10.1827 68.2069 10.1623 68.1333C10.1452 68.0713 10.083 68.0111 10.0259 67.9725C9.69649 67.7501 9.32855 67.6257 8.93374 67.6107C8.83189 67.6069 8.72643 67.6987 8.55733 67.7768Z" fill="black"/>
</svg>
