<svg width="25" height="24" viewBox="0 0 25 24" fill="none" xmlns="http://www.w3.org/2000/svg">
<path d="M9.06666 3H5.26666C4.7066 3 4.42658 3 4.21267 3.10899C4.0245 3.20487 3.87152 3.35785 3.77565 3.54601C3.66666 3.75992 3.66666 4.03995 3.66666 4.6V8.4C3.66666 8.96005 3.66666 9.24008 3.77565 9.45399C3.87152 9.64215 4.0245 9.79513 4.21267 9.89101C4.42658 10 4.7066 10 5.26666 10H9.06666C9.62671 10 9.90674 10 10.1206 9.89101C10.3088 9.79513 10.4618 9.64215 10.5577 9.45399C10.6667 9.24008 10.6667 8.96005 10.6667 8.4V4.6C10.6667 4.03995 10.6667 3.75992 10.5577 3.54601C10.4618 3.35785 10.3088 3.20487 10.1206 3.10899C9.90674 3 9.62671 3 9.06666 3Z" stroke="#667085" stroke-width="2" stroke-linecap="round" stroke-linejoin="round"/>
<path d="M20.0667 3H16.2667C15.7066 3 15.4266 3 15.2127 3.10899C15.0245 3.20487 14.8715 3.35785 14.7757 3.54601C14.6667 3.75992 14.6667 4.03995 14.6667 4.6V8.4C14.6667 8.96005 14.6667 9.24008 14.7757 9.45399C14.8715 9.64215 15.0245 9.79513 15.2127 9.89101C15.4266 10 15.7066 10 16.2667 10H20.0667C20.6267 10 20.9067 10 21.1206 9.89101C21.3088 9.79513 21.4618 9.64215 21.5577 9.45399C21.6667 9.24008 21.6667 8.96005 21.6667 8.4V4.6C21.6667 4.03995 21.6667 3.75992 21.5577 3.54601C21.4618 3.35785 21.3088 3.20487 21.1206 3.10899C20.9067 3 20.6267 3 20.0667 3Z" stroke="#667085" stroke-width="2" stroke-linecap="round" stroke-linejoin="round"/>
<path d="M20.0667 14H16.2667C15.7066 14 15.4266 14 15.2127 14.109C15.0245 14.2049 14.8715 14.3578 14.7757 14.546C14.6667 14.7599 14.6667 15.0399 14.6667 15.6V19.4C14.6667 19.9601 14.6667 20.2401 14.7757 20.454C14.8715 20.6422 15.0245 20.7951 15.2127 20.891C15.4266 21 15.7066 21 16.2667 21H20.0667C20.6267 21 20.9067 21 21.1206 20.891C21.3088 20.7951 21.4618 20.6422 21.5577 20.454C21.6667 20.2401 21.6667 19.9601 21.6667 19.4V15.6C21.6667 15.0399 21.6667 14.7599 21.5577 14.546C21.4618 14.3578 21.3088 14.2049 21.1206 14.109C20.9067 14 20.6267 14 20.0667 14Z" stroke="#667085" stroke-width="2" stroke-linecap="round" stroke-linejoin="round"/>
<path d="M9.06666 14H5.26666C4.7066 14 4.42658 14 4.21267 14.109C4.0245 14.2049 3.87152 14.3578 3.77565 14.546C3.66666 14.7599 3.66666 15.0399 3.66666 15.6V19.4C3.66666 19.9601 3.66666 20.2401 3.77565 20.454C3.87152 20.6422 4.0245 20.7951 4.21267 20.891C4.42658 21 4.7066 21 5.26666 21H9.06666C9.62671 21 9.90674 21 10.1206 20.891C10.3088 20.7951 10.4618 20.6422 10.5577 20.454C10.6667 20.2401 10.6667 19.9601 10.6667 19.4V15.6C10.6667 15.0399 10.6667 14.7599 10.5577 14.546C10.4618 14.3578 10.3088 14.2049 10.1206 14.109C9.90674 14 9.62671 14 9.06666 14Z" stroke="#667085" stroke-width="2" stroke-linecap="round" stroke-linejoin="round"/>
</svg>
