<svg width="40" height="40" viewBox="0 0 40 40" fill="none" xmlns="http://www.w3.org/2000/svg">
<path d="M20 40C31.0457 40 40 31.0457 40 20C40 8.9543 31.0457 0 20 0C8.9543 0 0 8.9543 0 20C0 31.0457 8.9543 40 20 40Z" fill="white"/>
<path d="M32.8325 4.6675C35.7425 8.14125 37.5 12.6137 37.5 17.5C37.5 28.545 28.545 37.5 17.5 37.5C12.6138 37.5 8.14126 35.7425 4.66751 32.8325C8.33626 37.2125 13.84 40 20 40C31.045 40 40 31.045 40 20C40 13.84 37.2125 8.33625 32.8325 4.6675Z" fill="white"/>
<path d="M26.8188 23.75H13.1813C12.805 23.75 12.5 24.03 12.5 24.375C12.5 28.1663 15.8637 31.25 20 31.25C24.1362 31.25 27.5 28.1663 27.5 24.375C27.5 24.03 27.195 23.75 26.8188 23.75Z" fill="#707070"/>
<path d="M27.45 25C27.4725 24.7925 27.5 24.5875 27.5 24.375C27.5 24.03 27.195 23.75 26.8188 23.75H13.1813C12.805 23.75 12.5 24.03 12.5 24.375C12.5 24.5875 12.5275 24.7925 12.55 25H27.45Z" fill="#AB7934"/>
<path d="M12.5 20C13.8807 20 15 18.8807 15 17.5C15 16.1193 13.8807 15 12.5 15C11.1193 15 10 16.1193 10 17.5C10 18.8807 11.1193 20 12.5 20Z" fill="#707070"/>
<path d="M12.5 16.25C13.6637 16.25 14.6325 17.0487 14.9113 18.125C14.9637 17.9237 15 17.7175 15 17.5C15 16.12 13.88 15 12.5 15C11.12 15 10 16.12 10 17.5C10 17.7175 10.0363 17.9237 10.0888 18.125C10.3675 17.0487 11.3363 16.25 12.5 16.25Z" fill="#AB7934"/>
<path d="M27.5 20C28.8807 20 30 18.8807 30 17.5C30 16.1193 28.8807 15 27.5 15C26.1193 15 25 16.1193 25 17.5C25 18.8807 26.1193 20 27.5 20Z" fill="#707070"/>
<path d="M31.875 23.75C32.9105 23.75 33.75 22.9105 33.75 21.875C33.75 20.8395 32.9105 20 31.875 20C30.8395 20 30 20.8395 30 21.875C30 22.9105 30.8395 23.75 31.875 23.75Z" fill="white"/>
<path d="M8.125 23.75C9.16053 23.75 10 22.9105 10 21.875C10 20.8395 9.16053 20 8.125 20C7.08947 20 6.25 20.8395 6.25 21.875C6.25 22.9105 7.08947 23.75 8.125 23.75Z" fill="white"/>
<path d="M27.5 16.25C28.6637 16.25 29.6325 17.0487 29.9125 18.125C29.9638 17.9237 30 17.7175 30 17.5C30 16.12 28.88 15 27.5 15C26.12 15 25 16.12 25 17.5C25 17.7175 25.0362 17.9237 25.0875 18.125C25.3675 17.0487 26.3363 16.25 27.5 16.25Z" fill="#AB7934"/>
</svg>
