<svg width="40" height="40" viewBox="0 0 40 40" fill="none" xmlns="http://www.w3.org/2000/svg">
<path d="M8.88336 40L4.3418 30.6087C0.928205 23.5501 2.92789 15.2753 8.70446 10.4854C12.3003 7.50367 15.731 4.3282 18.8794 0.877266L19.6797 0L21.5407 2.45883C23.837 5.49273 25.5893 8.71883 26.6245 11.9877L8.88336 40Z" fill="#00AA95"/>
<path d="M36.6223 11.7139L36.0174 8.69016C33.0277 15.7376 25.3591 19.4823 20.9636 24.3451C13.2767 32.8491 8.88336 40 8.88336 40H13.4346C33.6634 40 39.5498 26.347 36.6223 11.7139Z" fill="#00CC76"/>
<path d="M36.0174 8.69016L34.9149 9.13148C32.1984 10.2189 29.4292 11.1608 26.6245 11.9877V11.9878C24.9517 12.4811 23.2663 12.9334 21.5718 13.3514C14.286 15.1487 8.8833 21.7275 8.8833 29.5682V40C8.88338 40 27.7991 28.062 36.0174 8.69016Z" fill="#A5E887"/>
</svg>
