<svg width="40" height="40" viewBox="0 0 40 40" fill="none" xmlns="http://www.w3.org/2000/svg">
<path d="M20 39.9999C31.0457 39.9999 40 31.0456 40 19.9999C40 8.95418 31.0457 -0.00012207 20 -0.00012207C8.9543 -0.00012207 0 8.95418 0 19.9999C0 31.0456 8.9543 39.9999 20 39.9999Z" fill="white"/>
<path d="M32.8325 4.66727C35.7425 8.14102 37.5 12.6135 37.5 17.4998C37.5 28.5448 28.545 37.4998 17.5 37.4998C12.6137 37.4998 8.14123 35.7423 4.66748 32.8323C8.33623 37.2123 13.84 39.9998 20 39.9998C31.045 39.9998 40 31.0448 40 19.9998C40 13.8398 37.2125 8.33602 32.8325 4.66727Z" fill="#F9F9F9"/>
<path d="M26.8188 23.7498H13.1813C12.805 23.7498 12.5 24.0298 12.5 24.3748C12.5 28.166 15.8637 31.2498 20 31.2498C24.1362 31.2498 27.5 28.166 27.5 24.3748C27.5 24.0298 27.195 23.7498 26.8188 23.7498Z" fill="#C98E3F"/>
<path d="M27.45 24.9998C27.4725 24.7923 27.5 24.5873 27.5 24.3748C27.5 24.0298 27.195 23.7498 26.8188 23.7498H13.1813C12.805 23.7498 12.5 24.0298 12.5 24.3748C12.5 24.5873 12.5275 24.7923 12.55 24.9998H27.45Z" fill="#AB7934"/>
<path d="M31.875 23.7498C32.9105 23.7498 33.75 22.9103 33.75 21.8748C33.75 20.8393 32.9105 19.9998 31.875 19.9998C30.8395 19.9998 30 20.8393 30 21.8748C30 22.9103 30.8395 23.7498 31.875 23.7498Z" fill="#F9F9F9"/>
<path d="M8.125 23.7498C9.16053 23.7498 10 22.9103 10 21.8748C10 20.8393 9.16053 19.9998 8.125 19.9998C7.08947 19.9998 6.25 20.8393 6.25 21.8748C6.25 22.9103 7.08947 23.7498 8.125 23.7498Z" fill="#F9F9F9"/>
<path d="M12.5 19.9998C12.3 19.9998 12.1013 19.9248 11.9488 19.776L8.37625 16.266C7.81125 15.711 7.5 14.9735 7.5 14.1885C7.5 13.4035 7.81125 12.6648 8.37625 12.1085C8.94125 11.556 9.6925 11.2498 10.4925 11.2498C11.2413 11.2498 11.9488 11.906 12.5 12.3985C13.0512 11.906 13.76 11.2498 14.51 11.2498C15.31 11.2498 16.06 11.556 16.625 12.1098C17.1912 12.666 17.5 13.4035 17.5 14.1898C17.5 14.9748 17.19 15.7123 16.625 16.2673L13.0525 19.7773C12.9043 19.9205 12.7061 20.0004 12.5 19.9998Z" fill="#F15642"/>
<path d="M8.37625 13.3598C8.94125 12.806 9.6925 12.4998 10.4925 12.4998C11.2413 12.4998 11.95 13.156 12.5013 13.6485C13.0513 13.156 13.76 12.4998 14.51 12.4998C15.31 12.4998 16.06 12.806 16.625 13.3598C17.0375 13.7648 17.3088 14.2685 17.4288 14.8135C17.4738 14.6098 17.5013 14.4023 17.5013 14.1885C17.5013 13.4035 17.1912 12.6648 16.6262 12.1085C16.06 11.556 15.31 11.2498 14.51 11.2498C13.76 11.2498 13.0513 11.906 12.5013 12.3985C11.9488 11.906 11.2413 11.2498 10.4925 11.2498C9.6925 11.2498 8.94125 11.556 8.37625 12.1098C7.81125 12.6648 7.5 13.4035 7.5 14.1885C7.5 14.401 7.5275 14.6098 7.5725 14.8135C7.69125 14.2673 7.965 13.7648 8.37625 13.3598Z" fill="#DA4E3C"/>
<path d="M27.5 19.9998C27.3 19.9998 27.1025 19.9248 26.9488 19.776L23.3775 16.266C22.8112 15.711 22.5 14.9735 22.5 14.1885C22.5 13.4035 22.8113 12.6648 23.3763 12.1085C23.94 11.556 24.6925 11.2498 25.4925 11.2498C26.24 11.2498 26.9488 11.906 27.5 12.3985C28.0513 11.906 28.76 11.2498 29.5088 11.2498C30.31 11.2498 31.0588 11.556 31.6238 12.1098C32.1888 12.666 32.4988 13.4035 32.4988 14.1898C32.4988 14.9748 32.1888 15.7123 31.6238 16.2673L28.0513 19.7773C27.9 19.9248 27.7 19.9998 27.5 19.9998Z" fill="#F15642"/>
<path d="M23.3763 13.3598C23.94 12.806 24.6925 12.4998 25.4925 12.4998C26.2412 12.4998 26.9488 13.156 27.5 13.6485C28.0512 13.156 28.76 12.4998 29.5088 12.4998C30.31 12.4998 31.0588 12.806 31.6237 13.3598C32.035 13.7648 32.3087 14.2685 32.4275 14.8135C32.4725 14.6098 32.5 14.4023 32.5 14.1885C32.5 13.4035 32.19 12.6648 31.625 12.1085C31.06 11.556 30.31 11.2498 29.5088 11.2498C28.7588 11.2498 28.0512 11.906 27.5 12.3985C26.9488 11.906 26.24 11.2498 25.4925 11.2498C24.6925 11.2498 23.9412 11.556 23.3775 12.1098C22.8112 12.6648 22.5 13.4035 22.5 14.1885C22.5 14.401 22.5263 14.6098 22.5725 14.8135C22.6913 14.2673 22.9638 13.7648 23.3763 13.3598Z" fill="#DA4E3C"/>
</svg>
