<svg width="40" height="40" viewBox="0 0 40 40" fill="none" xmlns="http://www.w3.org/2000/svg">
<path d="M20 40C31.0457 40 40 31.0457 40 20C40 8.9543 31.0457 0 20 0C8.9543 0 0 8.9543 0 20C0 31.0457 8.9543 40 20 40Z" fill="white"/>
<path d="M32.8325 4.6675C35.7425 8.14125 37.5 12.6137 37.5 17.5C37.5 28.545 28.545 37.5 17.5 37.5C12.6138 37.5 8.14126 35.7425 4.66751 32.8325C8.33626 37.2125 13.84 40 20 40C31.045 40 40 31.045 40 20C40 13.84 37.2125 8.33625 32.8325 4.6675Z" fill="white"/>
<path d="M25.4512 28.75C25.0912 28.75 24.7275 28.6625 24.3962 28.4788C22.0537 27.1825 17.9437 27.1825 15.6012 28.4788C14.635 29.015 13.3762 28.73 12.7925 27.8425C12.2087 26.955 12.52 25.8013 13.4862 25.265C17.1375 23.2438 22.8587 23.2438 26.51 25.265C27.4762 25.8013 27.7875 26.955 27.2037 27.8425C26.8212 28.4263 26.145 28.75 25.4512 28.75Z" fill="#707070"/>
<path d="M12.5 21.25C13.8807 21.25 15 20.1307 15 18.75C15 17.3693 13.8807 16.25 12.5 16.25C11.1193 16.25 10 17.3693 10 18.75C10 20.1307 11.1193 21.25 12.5 21.25Z" fill="#707070"/>
<path d="M27.5 21.25C28.8807 21.25 30 20.1307 30 18.75C30 17.3693 28.8807 16.25 27.5 16.25C26.1193 16.25 25 17.3693 25 18.75C25 20.1307 26.1193 21.25 27.5 21.25Z" fill="#707070"/>
<path d="M13.4875 26.5162C17.1388 24.495 22.86 24.495 26.5112 26.5162C26.9362 26.7525 27.2262 27.11 27.3775 27.51C27.7025 26.685 27.36 25.7375 26.5112 25.2662C22.86 23.245 17.1388 23.245 13.4875 25.2662C12.6375 25.7375 12.2963 26.685 12.6213 27.51C12.7725 27.11 13.0625 26.7525 13.4875 26.5162ZM12.5 17.5C13.6637 17.5 14.6325 18.2987 14.9113 19.375C14.9637 19.1737 15 18.9675 15 18.75C15 17.37 13.88 16.25 12.5 16.25C11.12 16.25 10 17.37 10 18.75C10 18.9675 10.0363 19.1737 10.0888 19.375C10.3675 18.2987 11.3363 17.5 12.5 17.5ZM27.5 17.5C28.6637 17.5 29.6325 18.2987 29.9125 19.375C29.9638 19.1737 30 18.9675 30 18.75C30 17.37 28.88 16.25 27.5 16.25C26.12 16.25 25 17.37 25 18.75C25 18.9675 25.0362 19.1737 25.0875 19.375C25.3675 18.2987 26.3363 17.5 27.5 17.5Z" fill="#AB7934"/>
<path d="M31.875 25C32.9105 25 33.75 24.1605 33.75 23.125C33.75 22.0895 32.9105 21.25 31.875 21.25C30.8395 21.25 30 22.0895 30 23.125C30 24.1605 30.8395 25 31.875 25Z" fill="white"/>
<path d="M8.125 25C9.16053 25 10 24.1605 10 23.125C10 22.0895 9.16053 21.25 8.125 21.25C7.08947 21.25 6.25 22.0895 6.25 23.125C6.25 24.1605 7.08947 25 8.125 25Z" fill="white"/>
</svg>
